<svg width="187" height="188" viewBox="0 0 187 188" fill="none" xmlns="http://www.w3.org/2000/svg">
<path d="M90.2198 150.644C130.735 150.644 163.579 117.893 163.579 77.492C163.579 37.0912 130.735 4.33984 90.2198 4.33984C49.7045 4.33984 16.8604 37.0912 16.8604 77.492C16.8604 117.893 49.7045 150.644 90.2198 150.644Z" fill="#E8FFE4"/>
<path d="M118.588 37.64H79.5098V22.8516H130.735C130.829 22.8516 130.924 22.8516 131.018 22.8516C139.022 23.0399 145.519 29.6335 145.519 37.64H128.57" fill="#D6E9D3"/>
<g filter="url(#filter0_d_513_2180)">
<path d="M132.15 22.8516C129.137 23.0399 126.312 24.2645 124.334 26.3367C124.146 26.5251 123.958 26.7135 123.769 26.9961C121.98 29.0684 120.662 31.8001 120.662 34.72V122.697C120.662 130.892 114.07 137.486 105.878 137.486H33.9365V34.0606C34.1249 31.0464 35.2549 28.3149 37.2323 26.3367C39.3981 24.1703 42.3172 22.8516 45.613 22.8516H118.025H131.773C131.868 22.8516 131.962 22.8516 132.15 22.8516Z" fill="url(#paint0_linear_513_2180)"/>
</g>
<path d="M106.348 43.0074H84.973C84.2198 43.0074 83.5605 42.3481 83.5605 41.5945C83.5605 40.841 84.2198 40.1816 84.973 40.1816H106.348C107.102 40.1816 107.761 40.841 107.761 41.5945C107.761 42.3481 107.196 43.0074 106.348 43.0074Z" fill="#B3BFD3"/>
<path d="M74.8974 43.0074H47.0248C46.2714 43.0074 45.6123 42.3481 45.6123 41.5945C45.6123 40.841 46.2714 40.1816 47.0248 40.1816H74.9917C75.7449 40.1816 76.4042 40.841 76.4042 41.5945C76.4042 42.3481 75.7449 43.0074 74.8974 43.0074Z" fill="#B3BFD3"/>
<path d="M92.7896 56.9489H65.0111C64.2577 56.9489 63.5986 56.2895 63.5986 55.536C63.5986 54.7823 64.2577 54.123 65.0111 54.123H92.7896C93.5428 54.123 94.2021 54.7823 94.2021 55.536C94.2962 56.2895 93.6371 56.9489 92.7896 56.9489Z" fill="#B3BFD3"/>
<path d="M56.0645 56.9489H47.0248C46.2714 56.9489 45.6123 56.2895 45.6123 55.536C45.6123 54.7823 46.2714 54.123 47.0248 54.123H56.0645C56.8179 54.123 57.477 54.7823 57.477 55.536C57.477 56.2895 56.8179 56.9489 56.0645 56.9489Z" fill="#D4DBEC"/>
<path d="M106.349 70.8904H89.305C88.5517 70.8904 87.8926 70.231 87.8926 69.4775C87.8926 68.7238 88.5517 68.0645 89.305 68.0645H106.349C107.102 68.0645 107.761 68.7238 107.761 69.4775C107.761 70.231 107.196 70.8904 106.349 70.8904Z" fill="#D4DBEC"/>
<path d="M81.1123 70.8904H47.0248C46.2714 70.8904 45.6123 70.231 45.6123 69.4775C45.6123 68.7238 46.2714 68.0645 47.0248 68.0645H81.1123C81.8656 68.0645 82.5247 68.7238 82.5247 69.4775C82.5247 70.231 81.9597 70.8904 81.1123 70.8904Z" fill="#B3BFD3"/>
<path d="M92.7878 84.8318H74.0492C73.2958 84.8318 72.6367 84.1724 72.6367 83.4189C72.6367 82.6652 73.2958 82.0059 74.0492 82.0059H92.7878C93.5412 82.0059 94.2003 82.6652 94.2003 83.4189C94.2945 84.1724 93.6353 84.8318 92.7878 84.8318Z" fill="#B3BFD3"/>
<path d="M65.8577 84.8318H47.0248C46.2714 84.8318 45.6123 84.1724 45.6123 83.4189C45.6123 82.6652 46.2714 82.0059 47.0248 82.0059H65.9518C66.7051 82.0059 67.3642 82.6652 67.3642 83.4189C67.3642 84.1724 66.7051 84.8318 65.8577 84.8318Z" fill="#D4DBEC"/>
<path d="M106.349 98.7711H93.2601C92.5068 98.7711 91.8477 98.1117 91.8477 97.3582C91.8477 96.6047 92.5068 95.9453 93.2601 95.9453H106.349C107.102 95.9453 107.761 96.6047 107.761 97.3582C107.761 98.1117 107.196 98.7711 106.349 98.7711Z" fill="#B3BFD3"/>
<path d="M84.7844 98.7711H62.8441C62.0909 98.7711 61.4316 98.1117 61.4316 97.3582C61.4316 96.6047 62.0909 95.9453 62.8441 95.9453H84.7844C85.5378 95.9453 86.1969 96.6047 86.1969 97.3582C86.1969 98.1117 85.5378 98.7711 84.7844 98.7711Z" fill="#D4DBEC"/>
<path d="M54.6521 98.7711H47.0248C46.2714 98.7711 45.6123 98.1117 45.6123 97.3582C45.6123 96.6047 46.2714 95.9453 47.0248 95.9453H54.6521C55.4054 95.9453 56.0645 96.6047 56.0645 97.3582C56.0645 98.1117 55.4054 98.7711 54.6521 98.7711Z" fill="#B3BFD3"/>
<path d="M92.789 112.713H79.7943C79.0411 112.713 78.3818 112.053 78.3818 111.3C78.3818 110.546 79.0411 109.887 79.7943 109.887H92.789C93.5423 109.887 94.2014 110.546 94.2014 111.3C94.2957 112.053 93.6364 112.713 92.789 112.713Z" fill="#B3BFD3"/>
<path d="M71.225 112.713H47.0248C46.2714 112.713 45.6123 112.053 45.6123 111.3C45.6123 110.546 46.2714 109.887 47.0248 109.887H71.225C71.9784 109.887 72.6375 110.546 72.6375 111.3C72.6375 112.053 71.9784 112.713 71.225 112.713Z" fill="#D4DBEC"/>
<path d="M74.2382 125.805H93.2595C93.2595 129.007 94.5778 131.927 96.6494 133.999C98.721 136.166 101.64 137.391 104.842 137.391H19.2463C16.0447 137.391 13.1256 136.072 11.054 133.999C8.98237 131.927 7.66406 129.007 7.66406 125.805H63.9744C63.9744 125.805 74.4266 125.899 74.2382 125.805Z" fill="#D6E9D3"/>
<path d="M155.896 116.783L144.007 104.937L146.732 102.219L158.612 114.074L155.896 116.783Z" fill="#92BA8B"/>
<path d="M160.029 120.951L150.913 111.86C150.151 111.101 150.151 109.864 150.913 109.105C151.674 108.345 152.915 108.345 153.676 109.105L162.793 118.195C163.554 118.955 163.554 120.192 162.793 120.951C162.031 121.71 160.791 121.71 160.029 120.951Z" fill="#92BA8B"/>
<path d="M159.381 121.532L147.652 109.835C147.379 109.564 147.379 109.123 147.652 108.842L150.65 105.852C150.922 105.58 151.364 105.58 151.646 105.852L163.375 117.549C163.648 117.82 163.648 118.261 163.375 118.542L160.377 121.532C160.095 121.804 159.654 121.804 159.381 121.532Z" fill="url(#paint1_linear_513_2180)"/>
<path d="M130.548 66.7637C118.104 66.7637 108.02 76.8198 108.02 89.2284C108.02 101.628 118.104 111.693 130.539 111.693C142.982 111.693 153.067 101.637 153.067 89.2284C153.067 76.8198 142.982 66.7637 130.548 66.7637ZM130.548 107.532C120.557 107.532 112.465 99.3317 112.465 89.2191C112.465 79.1067 120.557 70.9154 130.548 70.9154C140.539 70.9154 148.631 79.116 148.631 89.2284C148.631 99.341 140.529 107.532 130.548 107.532Z" fill="url(#paint2_linear_513_2180)"/>
<defs>
<filter id="filter0_d_513_2180" x="16.2644" y="14.0155" width="133.558" height="149.979" filterUnits="userSpaceOnUse" color-interpolation-filters="sRGB">
<feFlood flood-opacity="0" result="BackgroundImageFix"/>
<feColorMatrix in="SourceAlpha" type="matrix" values="0 0 0 0 0 0 0 0 0 0 0 0 0 0 0 0 0 0 127 0" result="hardAlpha"/>
<feOffset dy="8.83607"/>
<feGaussianBlur stdDeviation="8.83607"/>
<feColorMatrix type="matrix" values="0 0 0 0 0.397708 0 0 0 0 0.47749 0 0 0 0 0.575 0 0 0 0.27 0"/>
<feBlend mode="normal" in2="BackgroundImageFix" result="effect1_dropShadow_513_2180"/>
<feBlend mode="normal" in="SourceGraphic" in2="effect1_dropShadow_513_2180" result="shape"/>
</filter>
<linearGradient id="paint0_linear_513_2180" x1="83.0113" y1="20.2" x2="83.0113" y2="138.721" gradientUnits="userSpaceOnUse">
<stop stop-color="white"/>
<stop offset="0.9964" stop-color="#E9EFE8"/>
</linearGradient>
<linearGradient id="paint1_linear_513_2180" x1="147.44" y1="113.694" x2="163.582" y2="113.694" gradientUnits="userSpaceOnUse">
<stop stop-color="#72BF65" stop-opacity="0.15"/>
<stop offset="1" stop-color="#99B195"/>
</linearGradient>
<linearGradient id="paint2_linear_513_2180" x1="107.999" y1="89.2333" x2="153.075" y2="89.2333" gradientUnits="userSpaceOnUse">
<stop stop-color="#B1CAAC"/>
<stop offset="1" stop-color="#A2B99E"/>
</linearGradient>
</defs>
</svg>
