<svg width="385" height="220" viewBox="0 0 385 220" fill="none" xmlns="http://www.w3.org/2000/svg">
<g style="mix-blend-mode:multiply">
<path d="M103.738 219.279C161.03 219.279 207.475 216.379 207.475 212.802C207.475 209.224 161.03 206.324 103.738 206.324C46.4454 206.324 0.000671387 209.224 0.000671387 212.802C0.000671387 216.379 46.4454 219.279 103.738 219.279Z" fill="#84868B" fill-opacity="0.75"/>
</g>
<path d="M205.407 110.127C208.163 107.371 208.163 102.903 205.407 100.147C202.651 97.3906 198.183 97.3906 195.427 100.147C192.671 102.903 192.671 107.371 195.427 110.127C198.183 112.883 202.651 112.883 205.407 110.127Z" fill="#E5E5E5"/>
<path d="M182.867 105.135C182.867 101.237 186.026 98.0781 189.924 98.0781C193.822 98.0781 196.982 101.237 196.982 105.135C196.982 109.033 193.822 112.192 189.924 112.192C186.026 112.192 182.867 109.033 182.867 105.135Z" fill="#CBCBCB"/>
<path d="M187.888 100.416C187.888 96.5185 191.047 93.3594 194.945 93.3594C198.843 93.3594 202.002 96.5185 202.002 100.416C202.002 104.315 198.843 107.474 194.945 107.474C191.047 107.474 187.888 104.313 187.888 100.416Z" fill="#F1F1F1"/>
<path d="M199.936 115.154C202.692 112.398 202.692 107.93 199.936 105.174C197.18 102.418 192.711 102.418 189.955 105.174C187.199 107.93 187.199 112.398 189.955 115.154C192.711 117.91 197.18 117.91 199.936 115.154Z" fill="white"/>
<path d="M230.344 83.8268C234.759 82.7849 237.493 78.3614 236.451 73.9468C235.409 69.5321 230.986 66.798 226.571 67.8399C222.156 68.8819 219.422 73.3053 220.464 77.72C221.506 82.1347 225.93 84.8688 230.344 83.8268Z" fill="#E5E5E5"/>
<path d="M227.603 87.0751C229.055 82.7778 226.749 78.1171 222.451 76.6651C218.154 75.213 213.493 77.5195 212.041 81.8168C210.589 86.1141 212.896 90.7748 217.193 92.2268C221.49 93.6788 226.151 91.3723 227.603 87.0751Z" fill="#CBCBCB"/>
<path d="M227.85 79.0595C229.303 74.7622 226.996 70.1015 222.699 68.6494C218.402 67.1974 213.741 69.5039 212.289 73.8012C210.837 78.0984 213.143 82.7591 217.44 84.2112C221.738 85.6632 226.398 83.3567 227.85 79.0595Z" fill="#F1F1F1"/>
<path d="M230.15 92.3823C234.542 91.2496 237.185 86.7708 236.052 82.3786C234.919 77.9863 230.44 75.3439 226.048 76.4765C221.656 77.6092 219.014 82.088 220.146 86.4802C221.279 90.8725 225.758 93.5149 230.15 92.3823Z" fill="white"/>
<path d="M275.951 77.1554C280.252 72.8541 280.252 65.8803 275.951 61.5789C271.649 57.2776 264.676 57.2776 260.374 61.5789C256.073 65.8803 256.073 72.8541 260.374 77.1554C264.676 81.4568 271.649 81.4567 275.951 77.1554Z" fill="#E5E5E5"/>
<path d="M278.87 88.2584C280.267 82.3381 276.601 76.406 270.68 75.0086C264.76 73.6113 258.828 77.2779 257.431 83.1982C256.033 89.1186 259.7 95.0507 265.62 96.4481C271.541 97.8454 277.473 94.1787 278.87 88.2584Z" fill="#CBCBCB"/>
<path d="M260.797 88.9152C254.714 88.9152 249.783 83.9844 249.783 77.901C249.783 71.8175 254.714 66.8867 260.797 66.8867C266.881 66.8867 271.811 71.8175 271.811 77.901C271.811 83.9844 266.881 88.9152 260.797 88.9152Z" fill="#F1F1F1"/>
<path d="M283.793 85.6906C288.094 81.3892 288.094 74.4154 283.793 70.1141C279.491 65.8128 272.518 65.8128 268.216 70.1141C263.915 74.4154 263.915 81.3893 268.216 85.6906C272.518 89.9919 279.491 89.9919 283.793 85.6906Z" fill="white"/>
<path d="M321.195 57.3574C324.393 52.1831 322.791 45.3957 317.617 42.1975C312.442 38.9992 305.655 40.6012 302.457 45.7755C299.258 50.9499 300.86 57.7372 306.035 60.9355C311.209 64.1337 317.996 62.5318 321.195 57.3574Z" fill="#E5E5E5"/>
<path d="M323.392 74.1418C329.475 74.1418 334.406 69.2105 334.406 63.1275C334.406 57.0445 329.475 52.1133 323.392 52.1133C317.309 52.1133 312.378 57.0445 312.378 63.1275C312.378 69.2105 317.309 74.1418 323.392 74.1418Z" fill="#CBCBCB"/>
<path d="M322.022 68.6035C325.22 63.4291 323.618 56.6418 318.444 53.4435C313.27 50.2453 306.482 51.8472 303.284 57.0216C300.086 62.196 301.688 68.9833 306.862 72.1816C312.037 75.3798 318.824 73.7778 322.022 68.6035Z" fill="#F1F1F1"/>
<path d="M323.397 63.0597C329.48 63.0597 334.411 58.1285 334.411 52.0455C334.411 45.9625 329.48 41.0312 323.397 41.0312C317.314 41.0312 312.383 45.9625 312.383 52.0455C312.383 58.1285 317.314 63.0597 323.397 63.0597Z" fill="white"/>
<path d="M356.256 30.9644C361.255 25.966 361.255 17.8621 356.256 12.8638C351.258 7.86544 343.154 7.86544 338.156 12.8638C333.157 17.8621 333.157 25.966 338.156 30.9644C343.154 35.9627 351.258 35.9627 356.256 30.9644Z" fill="#E5E5E5"/>
<path d="M375.283 30.9643C380.282 25.966 380.281 17.8621 375.283 12.8638C370.285 7.86542 362.181 7.86541 357.183 12.8637C352.184 17.8621 352.184 25.966 357.183 30.9644C362.181 35.9627 370.285 35.9627 375.283 30.9643Z" fill="#CBCBCB"/>
<path d="M366.179 39.519C371.178 34.5207 371.178 26.4168 366.179 21.4184C361.181 16.4201 353.077 16.4201 348.079 21.4185C343.08 26.4168 343.08 34.5207 348.079 39.519C353.077 44.5174 361.181 44.5174 366.179 39.519Z" fill="#F1F1F1"/>
<path d="M357.129 25.5981C364.197 25.5981 369.928 19.8678 369.928 12.799C369.928 5.73033 364.197 0 357.129 0C350.06 0 344.329 5.73033 344.329 12.799C344.329 19.8678 350.06 25.5981 357.129 25.5981Z" fill="white"/>
<path d="M20.5736 60.4021C20.5736 60.4021 11.8844 51.0872 10.029 52.9492C8.1736 54.8128 20.5736 60.4021 20.5736 60.4021Z" fill="#27AAE1"/>
<path d="M11.8007 53.5816C11.671 53.7951 12.4361 54.575 13.51 55.3238C14.5838 56.0725 15.5591 56.5076 15.6889 56.2941C15.8186 56.0807 15.0534 55.3008 13.9796 54.552C12.9057 53.8033 11.9304 53.3682 11.8007 53.5816Z" fill="white"/>
<path d="M17.9333 66.5357C17.9333 66.5357 1.35117 59.6723 0.0622335 63.145C-1.2267 66.6178 17.9333 66.5357 17.9333 66.5357Z" fill="#27AAE1"/>
<path d="M2.70264 62.9229C2.66159 63.2727 4.09831 63.8244 5.91267 64.1577C7.72703 64.491 9.23106 64.4762 9.27375 64.1281C9.3148 63.7784 7.87809 63.2267 6.06372 62.8934C4.24936 62.56 2.74533 62.5748 2.70428 62.9229H2.70264Z" fill="white"/>
<path d="M17.6242 71.0664C17.6242 71.0664 7.5114 74.4111 8.2782 76.4701C9.04499 78.5307 17.6242 71.0664 17.6242 71.0664Z" fill="#27AAE1"/>
<path d="M9.37857 75.3472C9.49515 75.5196 10.3555 75.211 11.2997 74.6576C12.2438 74.1043 12.9153 73.5148 12.7988 73.3408C12.6822 73.1684 11.8218 73.477 10.8777 74.0304C9.93355 74.5837 9.26199 75.1732 9.37857 75.3472Z" fill="white"/>
<path d="M48.1633 46.6336C48.1633 46.6336 48.0844 37.6586 49.9366 37.7112C51.7887 37.7637 48.1633 46.6336 48.1633 46.6336Z" fill="#27AAE1"/>
<path d="M49.3393 38.8928C49.5084 38.9388 49.4953 39.7088 49.3114 40.6119C49.1275 41.515 48.8385 42.2112 48.6678 42.1652C48.4986 42.1192 48.5118 41.3491 48.6957 40.4461C48.8812 39.543 49.1686 38.8468 49.3393 38.8928Z" fill="white"/>
<path d="M52.4896 48.4939C52.4896 48.4939 57.6339 36.9428 59.9786 38.0921C62.3217 39.2415 52.4896 48.4939 52.4896 48.4939Z" fill="#27AAE1"/>
<path d="M58.5203 39.2563C58.7108 39.414 58.2445 40.3942 57.4793 41.4434C56.7142 42.4926 55.9375 43.2167 55.7471 43.0575C55.5566 42.8982 56.0229 41.9196 56.7881 40.8704C57.5532 39.8212 58.3299 39.0971 58.5203 39.2563Z" fill="white"/>
<path d="M54.8445 50.6572C54.8445 50.6572 61.634 47.4603 62.2416 48.8855C62.8491 50.3107 54.8445 50.6572 54.8445 50.6572Z" fill="#27AAE1"/>
<path d="M61.135 48.8447C61.1597 48.9892 60.5702 49.2486 59.8182 49.4243C59.0662 49.6 58.4389 49.623 58.4143 49.4785C58.3897 49.334 58.9792 49.0746 59.7312 48.8989C60.4832 48.7232 61.1104 48.7002 61.135 48.8447Z" fill="white"/>
<path d="M20.2488 71.611L23.2454 57.3539C23.2454 57.3539 25.4818 56.9582 25.3914 58.5065C25.3011 60.0532 23.5032 64.9578 23.5032 64.9578C23.5032 64.9578 28.7115 64.2222 29.1942 67.4519C29.4421 69.1119 27.6376 72.9229 27.6376 72.9229L20.2488 71.6126V71.611Z" fill="#FBB09E"/>
<path d="M23.6867 65.1711C23.6867 65.1711 28.23 57.3488 29.0296 58.1698C29.8292 58.9907 29.601 60.1023 28.8326 61.5489C28.0641 62.9955 24.4502 67.1414 24.4502 67.1414C24.4502 67.1414 22.8411 67.2596 23.685 65.1694L23.6867 65.1711Z" fill="#FBB09E"/>
<path d="M27.959 74.0547L28.4352 70.4062L19.9627 71.0154L19.9676 74.2698L27.959 74.0547Z" fill="#D1D3D4"/>
<path d="M37.7423 95.2477C37.7423 95.2477 32.0513 99.2968 28.9693 95.9127C26.1846 92.8538 29.099 73.4442 29.099 73.4442L19.0388 73.2734C19.0388 73.2734 13.154 97.2099 23.3703 103.981C38.1577 113.782 50.1062 103.387 37.7423 95.2477Z" fill="#F3BA2F"/>
<g style="mix-blend-mode:multiply">
<path d="M19.0393 73.2773L29.0995 73.4481C29.0995 73.4481 28.9517 74.4333 28.7547 75.9866C19.522 78.0932 19.3906 96.3238 26.2376 101.599C35.1107 105.005 37.7411 95.2516 37.7411 95.2516C50.1051 103.392 38.1565 113.786 23.3691 103.985C13.1528 97.2138 19.0376 73.2773 19.0376 73.2773H19.0393Z" fill="#D1D3D4"/>
</g>
<path d="M41.0273 135.064L40.7038 164.964L27.8062 170.709L31.256 164.53L27.5485 124.813L67.8733 119.148L68.5153 121.616C68.7566 124.83 66.5663 124.945 63.2906 125.889L41.0289 135.066L41.0273 135.064Z" fill="#F3BA2F"/>
<g style="mix-blend-mode:multiply">
<path d="M33.921 128.36L37.4709 166.401L40.7023 164.961L41.0258 135.061L63.2874 125.884C65.7208 125.181 67.5532 124.935 68.2379 123.539L33.921 128.36Z" fill="#A7A9AC"/>
</g>
<path d="M134.241 98.2764C110.459 109.383 101.857 122.965 102.693 136.242L99.7849 137.403L93.6883 122.123C86.6164 104.399 121.789 73.7111 139.51 66.6392L150.572 62.2256C153.62 61.009 157.074 62.4949 158.291 65.5408L164.355 80.7354C167.061 87.5183 162.143 94.9104 154.841 95.0369L147.715 95.1584C143.055 95.2388 138.464 96.3045 134.241 98.2764Z" fill="#72BF65"/>
<path opacity="0.5" d="M154.852 63.5025L143.79 67.9161C126.067 74.988 90.8965 105.678 97.9684 123.399L102.646 135.121C102.655 135.496 102.669 135.87 102.694 136.244L99.786 137.405L93.6894 122.125C86.6175 104.402 121.79 73.7138 139.512 66.6419L150.573 62.2284C152.629 61.4074 154.87 61.8212 156.484 63.1101C155.938 63.1626 155.389 63.2891 154.852 63.5025Z" fill="white"/>
<path style="mix-blend-mode:multiply" d="M115.099 110.292C121.27 93.6397 141.233 75.7293 153.058 71.0103L159.455 68.457L164.355 80.7372C167.061 87.5201 162.143 94.9122 154.841 95.0387L147.715 95.1602C143.055 95.2406 138.464 96.3063 134.241 98.2782C126.197 102.035 119.89 106.076 115.098 110.291L115.099 110.292Z" fill="url(#paint0_linear_935_5024)"/>
<g style="mix-blend-mode:multiply">
<path d="M93.6885 122.126C91.664 117.052 93.1056 110.914 96.6046 104.573C105.368 102.557 115.129 101.872 123.994 103.773C107.955 113.712 101.989 125.086 102.691 136.245L99.7835 137.406L93.6869 122.126H93.6885Z" fill="#808080"/>
</g>
<path d="M152.944 145.145C128.049 153.462 112.458 149.534 103.925 139.328L101.017 140.488L107.114 155.768C114.186 173.492 160.824 171.536 178.545 164.464L189.607 160.051C192.655 158.834 194.139 155.379 192.922 152.332L186.858 137.137C184.153 130.354 175.495 128.379 170.114 133.315L164.861 138.132C161.426 141.281 157.362 143.669 152.942 145.147L152.944 145.145Z" fill="#72BF65"/>
<path opacity="0.5" d="M191.835 156.18L180.773 160.593C163.05 167.665 116.414 169.619 109.342 151.897L104.664 140.175C104.413 139.898 104.165 139.615 103.925 139.328L101.017 140.489L107.114 155.769C114.186 173.492 160.824 171.537 178.545 164.465L189.607 160.051C191.663 159.23 193.004 157.39 193.287 155.342C192.853 155.68 192.369 155.966 191.834 156.181L191.835 156.18Z" fill="white"/>
<path style="mix-blend-mode:multiply" d="M130.789 149.611C146.729 157.442 173.537 156.688 185.362 151.971L191.759 149.417L186.86 137.137C184.154 130.354 175.496 128.379 170.115 133.315L164.863 138.132C161.428 141.281 157.364 143.669 152.944 145.147C144.522 147.959 137.168 149.37 130.789 149.613V149.611Z" fill="url(#paint1_linear_935_5024)"/>
<g style="mix-blend-mode:multiply">
<path d="M107.114 155.769C109.138 160.843 114.409 164.302 121.312 166.491C129.055 161.92 136.606 155.697 141.728 148.214C123.252 152.048 111.095 147.906 103.923 139.328L101.015 140.489L107.112 155.769H107.114Z" fill="#808080"/>
</g>
<path d="M173.023 120.261L165.929 102.48L148.352 109.493L155.445 127.274L173.023 120.261Z" fill="#333333"/>
<path d="M164.459 123.679L157.365 105.898L156.035 106.429L163.129 124.21L164.459 123.679Z" fill="#999999"/>
<path d="M166.793 122.749L159.7 104.969L158.37 105.499L165.464 123.28L166.793 122.749Z" fill="#999999"/>
<path d="M169.13 121.816L162.036 104.035L160.706 104.566L167.8 122.346L169.13 121.816Z" fill="#999999"/>
<g style="mix-blend-mode:multiply">
<path d="M173.023 120.261L169.476 111.371L151.898 118.384L155.445 127.274L173.023 120.261Z" fill="#B3B3B3"/>
</g>
<path d="M162.966 103.044L168.83 91.9492L182.386 125.921L170.495 121.91L162.966 103.044Z" fill="#B3B3B3"/>
<path d="M166.003 110.658L174.299 105.656L176.735 111.763L167.356 114.048L166.003 110.658Z" fill="#666666"/>
<path d="M164.074 105.825L170.826 96.9531L172.01 99.9218L164.732 107.473L164.074 105.825Z" fill="#E6E7E8"/>
<path d="M168.834 117.75L179.397 118.43L181.162 122.855L169.815 120.208L168.834 117.75Z" fill="#808080"/>
<path d="M167.074 113.338L176.227 110.484L178.442 116.037L168.304 116.422L167.074 113.338Z" fill="#4D4D4D"/>
<path d="M162.966 103.044L168.83 91.9492L170.396 95.8735L163.836 105.224L162.966 103.044Z" fill="#CCCCCC"/>
<path d="M9.37968 181.569C7.25335 180.397 5.39794 179.029 3.89062 177.456C3.89883 175.277 4.3044 173.008 5.03999 170.695C10.0102 154.999 30.1274 137.207 45.4042 131.112L90.6844 113.044C98.5018 109.924 149.885 96.7671 153.005 104.586L162.21 127.654C165.329 135.471 119.003 161.303 111.186 164.422L65.9057 182.49C50.6289 188.585 23.7895 189.529 9.37968 181.571V181.569Z" fill="#E6E6E6"/>
<path d="M143.903 102.148C148.826 102.061 152.267 102.734 153.005 104.585L162.209 127.653C162.947 129.501 160.916 132.36 157.285 135.685L143.903 102.148Z" fill="black"/>
<path d="M9.37968 181.57C7.25335 180.398 5.39794 179.03 3.89062 177.457C3.89883 175.278 4.3044 173.009 5.03999 170.696C9.86735 155.452 28.9846 138.229 44.0759 131.668L64.5609 183.004C49.097 188.634 23.3757 189.304 9.37968 181.572V181.57Z" fill="#72BF65"/>
<g style="mix-blend-mode:multiply">
<path d="M9.06231 180.776C7.03778 179.859 5.28745 178.758 3.89178 177.457C4.01001 175.553 4.52066 173.549 5.35805 171.49C11.0195 157.526 31.6277 140.966 46.9045 134.871L92.1847 116.803C100.002 113.684 151.016 99.6006 153.679 106.273L161.538 125.967C164.201 132.642 117.505 157.545 109.688 160.665L64.4077 178.733C49.131 184.828 22.7841 187.005 9.06559 180.776H9.06231Z" fill="#E6E6E6"/>
</g>
<g style="mix-blend-mode:multiply">
<path d="M8.59109 179.594C7.02795 179.144 5.66349 178.576 4.53546 177.883C20.0207 176.195 38.6898 171.551 51.6974 166.361L109.074 143.467C115.22 141.014 140.76 129.025 158.789 119.086L160.534 123.462C162.52 128.437 115.276 151.966 107.458 155.086L62.178 173.154C46.9012 179.249 21.2834 183.255 8.58945 179.595L8.59109 179.594Z" fill="#E6E6E6"/>
</g>
<path d="M95.3207 122.649L48.4872 141.338C32.6866 147.643 11.0194 163.889 4.66995 177.093C4.63383 177.167 4.59935 177.24 4.56487 177.313C4.44336 177.57 4.11004 177.645 3.89659 177.46L3.89166 177.456C4.06735 175.694 4.63219 173.828 5.52213 171.9C11.5399 158.828 32.4009 142.903 47.6777 136.808L92.9579 118.74C100.775 115.62 151.599 101.058 154.026 107.143L154.723 108.89C142.279 108.164 102.294 119.868 95.3207 122.651V122.649Z" fill="url(#paint2_linear_935_5024)"/>
<path style="mix-blend-mode:multiply" d="M98.2733 140.48L158.144 117.465L162.209 127.655C163.919 131.937 150.786 141.628 137.276 150.028C116.66 147.68 98.2716 140.482 98.2716 140.482L98.2733 140.48Z" fill="url(#paint3_linear_935_5024)"/>
<path d="M178.741 116.784L172.475 101.082L121.342 121.487C118.015 122.813 96.3084 135.55 98.0373 139.886C99.768 144.223 124.279 138.515 127.606 137.189L178.739 116.784H178.741Z" fill="#72BF65"/>
<g style="mix-blend-mode:multiply">
<path d="M127.607 137.189C124.983 138.237 109.183 142.007 101.773 141.426C101.142 141.376 124.782 130.763 125.345 130.538L176.14 110.27L178.741 116.786L127.607 137.191V137.189Z" fill="#B3B3B3"/>
</g>
<path opacity="0.5" d="M121.486 125.467C118.725 126.568 104.339 134.47 98.1091 140.029C98.0828 139.982 98.0582 139.936 98.0385 139.886C96.3079 135.55 118.016 122.815 121.343 121.487L172.477 101.082L173.866 104.565L121.486 125.465V125.467Z" fill="white"/>
<g style="mix-blend-mode:multiply">
<path d="M73.9977 136.395C76.6593 135.333 79.3964 134.878 82.0367 134.963C86.0808 135.093 89.9082 138.201 91.6553 142.579L93.0608 146.102C94.8078 150.48 94.1707 155.369 91.3269 158.248C89.4698 160.126 87.1711 161.683 84.5111 162.743C81.8495 163.806 79.1124 164.261 76.4721 164.175C72.428 164.046 68.6006 160.937 66.8535 156.56L65.448 153.036C63.701 148.659 64.338 143.769 67.1819 140.891C69.039 139.012 71.3377 137.456 73.9977 136.395Z" fill="#666666"/>
</g>
<g style="mix-blend-mode:multiply">
<path d="M71.3772 133.465C74.0388 132.403 76.7759 131.948 79.4162 132.034C83.4603 132.163 87.2877 135.271 89.0348 139.649L90.4403 143.173C92.1873 147.55 91.5502 152.44 88.7064 155.318C86.8493 157.196 84.5506 158.753 81.8906 159.814C79.229 160.876 76.4919 161.331 73.8516 161.246C69.8075 161.116 65.9801 158.008 64.233 153.63L62.8275 150.107C61.0805 145.729 61.7176 140.839 64.5614 137.961C66.4185 136.083 68.7172 134.526 71.3772 133.465Z" fill="#CCCCCC"/>
</g>
<path d="M69.415 136.036C72.0766 134.973 74.8138 134.518 77.454 134.604C81.4982 134.734 85.3256 137.842 87.0726 142.219L88.4781 145.743C90.2252 150.12 89.5881 155.01 86.7459 157.888C84.8888 159.767 82.5901 161.323 79.9301 162.384C77.2701 163.445 74.5314 163.901 71.8911 163.816C67.847 163.686 64.0196 160.578 62.2725 156.2L60.867 152.677C59.12 148.299 59.757 143.41 62.6009 140.531C64.458 138.653 66.7567 137.096 69.4167 136.036H69.415Z" fill="url(#paint4_linear_935_5024)"/>
<path d="M69.6808 136.705C72.2078 135.697 74.807 135.265 77.3126 135.345C81.1515 135.469 84.7852 138.421 86.4435 142.575L87.7785 145.92C89.4368 150.075 88.8326 154.717 86.1332 157.449C84.3714 159.233 82.1876 160.71 79.6623 161.718C77.1353 162.727 74.5361 163.158 72.0305 163.078C68.1916 162.955 64.5579 160.003 62.8995 155.848L61.5646 152.504C59.9063 148.348 60.5105 143.706 63.2099 140.974C64.9717 139.191 67.1555 137.713 69.6808 136.705Z" fill="url(#paint5_linear_935_5024)"/>
<path d="M70.1686 137.926C72.4477 137.017 74.794 136.628 77.055 136.7C80.5195 136.812 83.7985 139.475 85.2943 143.223L86.4995 146.243C87.9953 149.993 87.4502 154.182 85.0152 156.648C83.4258 158.257 81.4554 159.59 79.1764 160.5C76.8974 161.41 74.551 161.799 72.29 161.727C68.8255 161.615 65.5465 158.952 64.0507 155.203L62.8455 152.183C61.3497 148.433 61.8948 144.245 64.3298 141.778C65.9192 140.169 67.8896 138.836 70.1686 137.926Z" fill="black"/>
<path d="M70.4479 138.626C72.5857 137.774 74.7859 137.408 76.9057 137.477C80.1535 137.582 83.2289 140.078 84.6327 143.595L85.7624 146.426C87.1646 149.941 86.654 153.87 84.37 156.182C82.8791 157.691 81.0319 158.941 78.8941 159.794C76.7563 160.647 74.556 161.013 72.4363 160.944C69.1885 160.839 66.1131 158.343 64.7092 154.826L63.5796 151.995C62.1773 148.48 62.688 144.55 64.972 142.239C66.4629 140.73 68.3101 139.48 70.4479 138.626Z" fill="#1ECB01"/>
<path opacity="0.3" d="M71.4134 148.002L73.1375 152.324C74.3886 155.459 76.2194 158.171 78.2505 160.028C76.3163 160.708 74.3443 161.002 72.4363 160.941C69.1886 160.836 66.1132 158.339 64.7093 154.823L63.5796 151.992C62.1774 148.477 62.6881 144.548 64.972 142.236C66.3135 140.878 67.9472 139.732 69.8174 138.895C69.6237 141.64 70.1622 144.868 71.4134 148.002Z" fill="white"/>
<path opacity="0.3" d="M75.5676 138.932C73.4297 139.784 71.617 141.12 70.1885 142.785C67.9998 145.335 67.7404 149.897 69.4201 154.107L70.773 157.496C71.2771 158.758 71.9306 159.921 72.6876 160.944C72.6038 160.944 72.5201 160.944 72.4363 160.944C69.1886 160.839 66.1132 158.341 64.7093 154.826L63.5796 151.995C62.1774 148.48 62.6881 144.55 64.972 142.239C66.4629 140.73 68.3101 139.48 70.4479 138.626C72.5858 137.774 74.786 137.408 76.9058 137.477C77.7464 137.503 78.5756 137.695 79.3687 138.019C78.088 138.14 76.8105 138.436 75.5659 138.933L75.5676 138.932Z" fill="white"/>
<g style="mix-blend-mode:multiply">
<path d="M56.6951 134.093L55.2107 165.35L42.5956 171.007L45.868 164.695L44.6103 124.114L77.5692 119.781C77.5692 119.781 83.876 125.85 73.3363 129.406L56.6967 134.093H56.6951Z" fill="#BBBDBF"/>
</g>
<path d="M47.4182 128.906L79.016 116.297L66.9789 86.1328L60.8659 86.5252C54.679 86.8241 48.5463 89.0358 43.5432 92.7696L35.4172 98.8366L47.4149 128.906H47.4182Z" fill="#F3BA2F"/>
<path d="M41.4445 99.0212C41.0586 100.126 56.0957 107.646 56.0957 107.646C56.0957 107.646 58.5881 91.3074 57.7836 89.5225C56.9774 87.7361 44.5182 90.2302 41.4461 99.0212H41.4445Z" fill="white"/>
<g style="mix-blend-mode:multiply">
<path d="M79.016 116.297L66.9789 86.1328L60.8659 86.5252C54.679 86.8241 48.5463 89.0358 43.5432 92.7696L35.4172 98.8366L37.8128 104.84C38.7109 104.585 39.77 104.263 40.9424 103.923C43.2411 105.378 50.0995 108.6 53.1815 108.805C53.1815 108.805 44.8748 104.611 42.7469 103.414C48.0849 101.961 55.1059 100.562 60.7887 102.575L58.8298 107.124C58.8298 107.124 61.3125 105.385 63.1432 103.662C67.2399 106.056 70.2529 110.833 70.7373 119.598L79.0144 116.294L79.016 116.297ZM56.6805 121.368C56.6805 121.368 61.186 117.619 56.1551 110.123L56.6805 121.368Z" fill="#D1D3D4"/>
</g>
<g style="mix-blend-mode:multiply">
<path d="M41.0193 101.83C50.8005 103.53 60.8082 96.2544 62.1135 86.4453L60.8673 86.5258C54.6804 86.8246 48.5477 89.0363 43.5447 92.7701L36.8832 97.7436C37.6435 100.088 39.6319 101.714 41.021 101.83H41.0193Z" fill="#A7A9AC"/>
</g>
<g style="mix-blend-mode:multiply">
<path d="M54.5588 109.03L59.0184 107.664L60.0101 123.473L58.1974 123.89L54.5588 109.03Z" fill="#A7A9AC"/>
</g>
<path d="M47.5472 110.184L46.7869 105.921C46.7869 105.921 42.5687 105.028 40.1124 105.731C37.656 106.433 35.9336 109.282 35.9336 109.282L38.3637 114.018L39.1945 113.733L37.7036 109.372L45.2304 106.799L46.7212 111.16L47.5472 110.184Z" fill="white"/>
<path d="M37.6363 134.063L60.6746 126.19L55.2315 107.207L30.149 115.78L37.6363 134.063Z" fill="#C3996C"/>
<g style="mix-blend-mode:multiply">
<path d="M41.4623 132.756L60.6748 126.19L55.2317 107.207L33.9733 114.473L41.4623 132.756Z" fill="#D1D3D4"/>
</g>
<path d="M38.7474 133.685L39.9247 133.283L32.4358 115L31.2585 115.402L38.7474 133.685Z" fill="#603913"/>
<g style="mix-blend-mode:multiply">
<path d="M56.6175 112.043L60.6748 126.192L41.4606 132.758L40.152 129.561C49.3945 127.289 41.4015 116.517 44.8118 115.537C50.5341 113.892 55.3975 116.826 56.6175 112.043Z" fill="#D1D3D4"/>
</g>
<path d="M53.7658 129.904L52.2815 161.162L39.6663 166.818L42.9387 160.506L41.681 119.925L78.7087 115.863L78.8105 116.96C79.1192 120.287 77.0093 123.359 73.7944 124.264L53.7674 129.904H53.7658Z" fill="#F3BA2F"/>
<g style="mix-blend-mode:multiply">
<path d="M41.6809 119.925L41.8024 123.842C54.5719 124.51 53.0268 157.31 42.8943 159.112L42.937 160.506L39.6646 166.818L52.2798 161.162L53.7641 129.904L73.791 124.264C77.006 123.359 79.1159 120.287 78.8072 116.96L78.7054 115.863L41.6777 119.925H41.6809Z" fill="#D1D3D4"/>
</g>
<g style="mix-blend-mode:multiply">
<path d="M68.7014 90.4453L65.6424 92.7818L71.2447 106.821L72.1051 112.091C72.5008 114.513 71.2661 116.894 69.0774 118.006C63.8658 120.649 57.7495 125.027 53.7678 129.905L73.7947 124.265C77.0096 123.36 79.1196 120.288 78.8109 116.961L78.7583 116.403L79.0178 116.3L68.7014 90.4469V90.4453Z" fill="#D1D3D4"/>
</g>
<path d="M53.791 93.6656C53.791 93.6656 61.0124 91.3702 63.0418 84.8763C65.0713 78.3823 60.5592 73.3037 62.4507 68.79C64.3422 64.2763 68.2123 59.728 68.2123 59.728L67.9118 50.2852L58.5511 55.3851C58.5511 55.3851 55.612 64.0201 56.515 68.2826C57.4181 72.5452 61.2931 76.4399 60.1766 81.4692C59.0601 86.4985 54.7302 91.0155 53.4446 91.2667C52.1589 91.518 52.6138 93.4883 53.7894 93.6656H53.791Z" fill="#72BF65"/>
<g style="mix-blend-mode:multiply">
<path d="M57.84 71.8766C59.2324 74.8601 60.9778 77.8763 60.1782 81.4689C60.1141 81.7612 60.0353 82.0518 59.9499 82.3408C61.0041 83.285 61.917 84.4327 62.6723 85.8628C62.8069 85.5426 62.935 85.2192 63.0417 84.876C64.5376 80.093 62.4917 76.0784 62.0648 72.4907C60.7315 72.87 59.1634 72.4431 57.84 71.875V71.8766Z" fill="#D1D3D4"/>
</g>
<g style="mix-blend-mode:multiply">
<path d="M53.4457 91.2657C52.1601 91.5169 52.6149 93.4872 53.7905 93.6646C53.7905 93.6646 55.7084 93.0456 57.8429 91.5645C57.5539 90.402 57.3011 89.2001 56.9759 88.0195C55.5606 89.8832 54.1042 91.1376 53.4457 91.2657Z" fill="#A7A9AC"/>
</g>
<path opacity="0.2" d="M61.9658 67.387C62.7309 66.7745 67.1314 60.0737 67.133 59.7535C67.133 59.4333 67.3695 51.5388 67.0345 51.4863C66.6979 51.4337 65.9229 51.3598 65.739 52.4403C65.5551 53.519 66.913 57.3546 66.0542 59.3135C65.1955 61.2723 60.5389 68.5314 61.9674 67.3886L61.9658 67.387Z" fill="white"/>
<path d="M55.2375 73.0565C55.9307 71.4682 55.2051 69.6187 53.6169 68.9255C52.0286 68.2323 50.1791 68.9578 49.4859 70.5461C48.7927 72.1343 49.5182 73.9838 51.1065 74.6771C52.6947 75.3703 54.5442 74.6447 55.2375 73.0565Z" fill="#FBB09E"/>
<g style="mix-blend-mode:multiply">
<path d="M52.3363 71.8205C52.0374 71.0702 51.3675 70.5874 50.6237 70.4758C50.8536 70.1819 51.1557 69.9372 51.5268 69.7894C52.6483 69.3412 53.9208 69.888 54.3674 71.0094C54.8156 72.1309 54.2689 73.4034 53.1474 73.85C52.7763 73.9978 52.3888 74.029 52.0194 73.9731C52.4841 73.3804 52.6368 72.5693 52.3363 71.8189V71.8205Z" fill="#FBB09E"/>
</g>
<g style="mix-blend-mode:multiply">
<path d="M51.1991 68.8991C51.4701 68.7908 51.7475 68.7366 52.025 68.707C51.9232 70.904 52.7541 72.8809 54.1957 74.3471C53.9905 74.4966 53.7704 74.6296 53.5241 74.7281C51.915 75.3701 50.0892 74.5869 49.4472 72.9761C48.8052 71.367 49.5884 69.5411 51.1991 68.8991Z" fill="#E6E7E8"/>
</g>
<path d="M32.3477 82.2156C33.3621 80.8106 33.0455 78.8492 31.6405 77.8348C30.2355 76.8204 28.2741 77.137 27.2597 78.542C26.2453 79.947 26.5619 81.9083 27.9669 82.9227C29.3719 83.9372 31.3332 83.6206 32.3477 82.2156Z" fill="#FBB09E"/>
<g style="mix-blend-mode:multiply">
<path d="M29.8314 80.3553C29.5325 79.6049 29.6852 78.7938 30.1482 78.201C29.7788 78.1468 29.3929 78.1764 29.0202 78.3242C27.8988 78.7724 27.352 80.0433 27.8003 81.1647C28.2485 82.2862 29.5194 82.833 30.6408 82.3847C31.0119 82.2369 31.314 81.9923 31.5439 81.6984C30.7985 81.5884 30.1302 81.104 29.8314 80.3553Z" fill="#FBB09E"/>
</g>
<g style="mix-blend-mode:multiply">
<path d="M28.6417 77.4529C28.3708 77.5613 28.1327 77.714 27.911 77.8831C29.4988 79.4068 30.2557 81.4116 30.2196 83.469C30.4708 83.4362 30.722 83.382 30.9683 83.2835C32.5774 82.6415 33.3623 80.8156 32.7203 79.2065C32.0783 77.5974 30.2524 76.8125 28.6433 77.4545L28.6417 77.4529Z" fill="#E6E7E8"/>
</g>
<path d="M32.7992 59.2493C28.0885 61.0046 25.7388 66.3147 27.6353 70.9696C30.1688 77.1877 35.6382 92.1558 34.2787 95.4282C29.5055 106.915 55.0757 97.7926 55.9623 94.6203C58.0049 87.312 50.0841 69.4623 47.6951 64.341C46.8084 62.4413 45.4308 60.7878 43.6312 59.7123C41.3111 58.3265 37.753 57.4021 32.7976 59.2477L32.7992 59.2493Z" fill="#FBB09E"/>
<path d="M40.6331 68.8498C40.7546 68.8711 40.8843 68.8432 40.991 68.7628C41.0058 68.7513 42.4376 67.6823 43.6116 67.9516C44.0763 68.06 44.4342 68.3736 44.7051 68.9122C44.8201 69.1421 45.0992 69.234 45.3291 69.1174C45.5573 69.0025 45.6493 68.7217 45.5343 68.4935C45.137 67.7053 44.559 67.2177 43.8185 67.0469C42.2192 66.6775 40.5034 67.9664 40.4295 68.0222C40.2242 68.1766 40.1848 68.4672 40.3392 68.6725C40.4131 68.771 40.5182 68.8317 40.6314 68.8498H40.6331Z" fill="black"/>
<path d="M33.7913 72.1187C33.7158 72.2172 33.6009 72.2846 33.4695 72.2977C33.4515 72.2993 31.6732 72.4816 30.9902 73.4733C30.7209 73.8674 30.67 74.3403 30.8342 74.9199C30.9048 75.1662 30.7603 75.424 30.514 75.4929C30.2677 75.5619 30.0099 75.4191 29.9409 75.1728C29.7012 74.3222 29.7965 73.5735 30.225 72.9463C31.1544 71.5917 33.2889 71.3815 33.3808 71.3733C33.6353 71.3486 33.8619 71.5358 33.8866 71.7903C33.8981 71.9135 33.8619 72.0284 33.7913 72.1187Z" fill="black"/>
<g style="mix-blend-mode:multiply">
<path d="M35.9636 81.0094C37.4814 80.4039 38.2184 78.6765 37.6099 77.1511C37.0013 75.6258 35.2776 74.8801 33.7598 75.4856C32.2421 76.0912 31.505 77.8186 32.1135 79.3439C32.7221 80.8693 34.4458 81.6149 35.9636 81.0094Z" fill="#A7A9AC"/>
</g>
<path d="M35.4535 80.9039C36.9713 80.2984 37.7084 78.571 37.0998 77.0456C36.4913 75.5203 34.7675 74.7746 33.2498 75.3802C31.732 75.9857 30.9949 77.7131 31.6035 79.2385C32.212 80.7638 33.9357 81.5095 35.4535 80.9039Z" fill="#FBB09E"/>
<path d="M35.2806 80.4651C36.3983 80.0192 36.8889 78.6165 36.3765 77.332C35.864 76.0476 34.5425 75.3678 33.4248 75.8137C32.3071 76.2596 31.8165 77.6624 32.3289 78.9468C32.8414 80.2313 34.1629 80.9111 35.2806 80.4651Z" fill="#F1F2F2"/>
<path d="M35.2896 77.262C35.4292 77.3244 35.5507 77.4426 35.6164 77.6068C35.7395 77.9139 35.6213 78.2488 35.3553 78.3555C35.0877 78.4623 34.7724 78.2997 34.6493 77.9927C34.646 77.9845 34.6476 77.9762 34.6443 77.9664C34.6164 78.147 34.6361 78.344 34.7117 78.5345C34.9136 79.0402 35.4341 79.3079 35.8725 79.1322C36.3126 78.9565 36.5063 78.4048 36.3044 77.8991C36.1254 77.4492 35.6935 77.1897 35.2896 77.262Z" fill="black"/>
<g style="mix-blend-mode:multiply">
<path d="M45.1124 77.2017C46.6303 76.5964 47.3677 74.8691 46.7594 73.3437C46.1511 71.8182 44.4275 71.0722 42.9096 71.6775C41.3917 72.2828 40.6544 74.0101 41.2627 75.5355C41.8709 77.061 43.5945 77.8069 45.1124 77.2017Z" fill="#A7A9AC"/>
</g>
<path d="M44.6111 77.0797C46.1288 76.4742 46.8659 74.7468 46.2573 73.2214C45.6488 71.6961 43.9251 70.9504 42.4073 71.5559C40.8895 72.1615 40.1524 73.8889 40.761 75.4142C41.3696 76.9396 43.0933 77.6852 44.6111 77.0797Z" fill="#FBB09E"/>
<path d="M44.4274 76.6565C45.545 76.2106 46.0357 74.8079 45.5232 73.5234C45.0108 72.239 43.6893 71.5592 42.5716 72.0051C41.4539 72.451 40.9633 73.8538 41.4757 75.1382C41.9882 76.4227 43.3097 77.1025 44.4274 76.6565Z" fill="#F1F2F2"/>
<path d="M44.4381 73.4495C44.5777 73.5119 44.6992 73.6301 44.7649 73.7943C44.888 74.1014 44.7698 74.4363 44.5038 74.543C44.2362 74.6498 43.9209 74.4872 43.7978 74.1802C43.7945 74.172 43.7961 74.1637 43.7928 74.1539C43.7649 74.3345 43.7846 74.5315 43.8602 74.722C44.0621 75.2277 44.5826 75.4954 45.021 75.3197C45.4611 75.144 45.6548 74.5923 45.4529 74.0866C45.2739 73.6367 44.842 73.3772 44.4381 73.4495Z" fill="black"/>
<g style="mix-blend-mode:multiply">
<path d="M46.194 83.9019C47.7933 87.9083 46.6768 88.9493 45.0463 89.5995C43.4158 90.2497 41.8905 90.2645 40.2912 86.2565C38.6919 82.2501 37.3258 74.9845 38.9547 74.3326C40.5835 73.6807 44.5948 79.8939 46.194 83.9003V83.9019Z" fill="#A7A9AC"/>
</g>
<path d="M44.8397 82.369C46.3864 86.244 45.2633 87.2686 43.6329 87.9188C42.0024 88.569 40.4836 88.6002 38.9369 84.7252C37.3901 80.8501 36.1111 73.8045 37.7415 73.1543C39.372 72.5041 43.293 78.4939 44.8397 82.369Z" fill="#FBB09E"/>
<path d="M38.1766 73.1333C38.0207 73.1054 37.8712 73.1021 37.7415 73.153C36.1111 73.8032 37.3901 80.8489 38.9369 84.7239C40.3391 88.2377 41.72 88.5381 43.1813 88.0784C43.0812 87.4413 42.9416 86.7271 42.7462 85.911C41.83 82.0672 39.9138 76.5798 38.1766 73.1349V73.1333Z" fill="#FDD0C5"/>
<g style="mix-blend-mode:multiply">
<path d="M47.6968 64.3421C46.8102 62.4423 45.4326 60.7889 43.633 59.7134C42.7923 59.211 41.7841 58.7709 40.6101 58.5C40.8696 58.6281 41.1191 58.7611 41.3523 58.9006C43.1519 59.9761 44.5295 61.6296 45.4161 63.5293C47.8052 68.6506 55.726 86.5003 53.6834 93.8086C53.0742 95.9891 40.817 100.976 34.75 100.161C39.0815 103.378 55.2629 97.1352 55.9657 94.623C58.0083 87.3147 50.0875 69.465 47.6985 64.3437L47.6968 64.3421Z" fill="#E6E7E8"/>
</g>
<path d="M43.6332 59.7123C41.3131 58.3265 37.755 57.4021 32.7996 59.2477C28.3499 60.906 26.0134 65.7334 27.3647 70.1864L46.6199 62.502C45.8203 61.3839 44.8203 60.42 43.6332 59.7107V59.7123Z" fill="#A36844"/>
<path d="M32.7815 59.2555C28.3449 60.9205 26.015 65.7396 27.3647 70.1861L31.3415 68.5983C30.6798 65.4605 31.2988 62.1848 32.7815 59.2539V59.2555Z" fill="#854F2D"/>
<g style="mix-blend-mode:multiply">
<path d="M36.9732 97.8789C36.5068 96.2697 39.3786 94.0235 43.3866 92.861C47.3947 91.6985 51.0234 92.0598 51.4897 93.6689C51.956 95.278 48.3273 94.9118 44.3176 96.0743C40.3096 97.2369 37.4378 99.488 36.9715 97.8789H36.9732Z" fill="#D1D3D4"/>
</g>
<path d="M36.5574 97.5742C36.0911 95.965 38.9629 93.7189 42.9709 92.5563C46.9789 91.3938 50.6077 91.7551 51.074 93.3642C51.5403 94.9733 47.9116 94.6072 43.9019 95.7697C39.8939 96.9322 37.0221 99.1833 36.5558 97.5742H36.5574Z" fill="#FBCCE8"/>
<path d="M36.8583 97.4841C36.4888 96.2067 39.3031 94.2692 43.1453 93.1543C46.9875 92.0411 50.4028 92.1724 50.7722 93.4499C51.1417 94.7273 47.5704 94.0525 43.7282 95.1673C39.886 96.2806 37.2277 98.7616 36.8583 97.4841Z" fill="#5B1322"/>
<path d="M42.9372 160.508L36.7092 168.147L52.2815 161.163L52.3932 158.789L42.9372 160.508Z" fill="black"/>
<path d="M53.8074 58.2241L41.8195 49.9453C41.8195 49.9453 39.9263 51.1981 41.056 52.2588C42.1873 53.3195 46.8669 55.638 46.8669 55.638C46.8669 55.638 42.583 58.6904 44.4565 61.3651C45.4186 62.7394 49.3511 64.2615 49.3511 64.2615L53.8074 58.2241Z" fill="#FBB09E"/>
<path d="M51.0076 56.6055C51.0076 56.6055 52.2325 50.2593 50.7712 49.967C49.3099 49.6748 48.6695 50.2002 48.3181 51.2166C47.9667 52.2329 48.4002 56.1408 48.4002 56.1408C48.4002 56.1408 50.2294 57.8878 51.0076 56.6055Z" fill="#FBB09E"/>
<path d="M46.8766 55.9182C46.8766 55.9182 38.1956 53.3732 38.1808 54.5192C38.166 55.6653 39.097 56.3155 40.6503 56.8344C42.2036 57.3549 47.6778 57.8738 47.6778 57.8738C47.6778 57.8738 48.9274 56.8525 46.8749 55.9182H46.8766Z" fill="#FBB09E"/>
<path d="M45.8012 57.9186C45.8012 57.9186 38.0003 57.3177 38.1661 58.4391C38.332 59.559 39.2252 59.9891 40.6323 60.1599C42.0395 60.3307 46.7897 59.6509 46.7897 59.6509C46.7897 59.6509 47.6977 58.385 45.8012 57.9203V57.9186Z" fill="#FBB09E"/>
<path d="M45.7207 59.6925C45.7207 59.6925 39.3515 61.4642 39.8063 62.3049C40.2612 63.1472 41.0953 63.2309 42.2611 62.9617C43.4268 62.6924 47.0047 60.7828 47.0047 60.7828C47.0047 60.7828 47.361 59.5168 45.7207 59.6925Z" fill="#FBB09E"/>
<path d="M51.8678 66.0335L48.6282 64.2881L54.0746 57.7695L56.7132 59.6742L51.8678 66.0335Z" fill="#D1D3D4"/>
<path d="M63.3463 86.3598C63.3463 86.3598 69.9584 84.1071 69.0126 79.6294C68.1588 75.582 50.7048 66.6038 50.7048 66.6038L56.4468 58.3398C56.4468 58.3398 79.3093 67.5545 78.8332 79.8002C78.1436 97.5268 62.7272 101.147 63.3463 86.3582V86.3598Z" fill="#F3BA2F"/>
<g style="mix-blend-mode:multiply">
<path d="M56.4468 58.3398L50.7048 66.6038C50.7048 66.6038 51.5899 67.0603 52.9658 67.809C60.0706 61.5482 74.9401 72.0962 75.2209 80.7345C72.799 89.9245 63.3463 86.3598 63.3463 86.3598C62.7256 101.149 78.1436 97.5284 78.8332 79.8019C79.3093 67.5545 56.4468 58.3415 56.4468 58.3415V58.3398Z" fill="#D1D3D4"/>
</g>
<path d="M25.8446 65.8784C25.8446 65.8784 31.089 60.0724 31.7393 60.9985C32.3895 61.9246 32.0381 62.8523 31.135 63.9442C30.2319 65.0361 26.3192 67.8126 26.3192 67.8126C26.3192 67.8126 24.7905 67.5187 25.8446 65.8768V65.8784Z" fill="#FBB09E"/>
<path d="M27.1249 67.1105C27.1249 67.1105 32.9637 64.0105 33.2133 64.9333C33.4629 65.8561 32.9161 66.4915 31.885 67.099C30.8538 67.7066 26.9443 68.7837 26.9443 68.7837C26.9443 68.7837 25.8146 68.1105 27.1249 67.1089V67.1105Z" fill="#FBB09E"/>
<defs>
<linearGradient id="paint0_linear_935_5024" x1="163.84" y1="79.4715" x2="111.175" y2="100.483" gradientUnits="userSpaceOnUse">
<stop stop-color="white"/>
<stop offset="0.04" stop-color="#E6E6E6"/>
<stop offset="0.15" stop-color="#B1B1B1"/>
<stop offset="0.26" stop-color="#818181"/>
<stop offset="0.37" stop-color="#595959"/>
<stop offset="0.49" stop-color="#393939"/>
<stop offset="0.6" stop-color="#202020"/>
<stop offset="0.72" stop-color="#0E0E0E"/>
<stop offset="0.85" stop-color="#030303"/>
<stop offset="1"/>
</linearGradient>
<linearGradient id="paint1_linear_935_5024" x1="187.378" y1="138.45" x2="134.713" y2="159.461" gradientUnits="userSpaceOnUse">
<stop stop-color="white"/>
<stop offset="0.04" stop-color="#E6E6E6"/>
<stop offset="0.15" stop-color="#B1B1B1"/>
<stop offset="0.26" stop-color="#818181"/>
<stop offset="0.37" stop-color="#595959"/>
<stop offset="0.49" stop-color="#393939"/>
<stop offset="0.6" stop-color="#202020"/>
<stop offset="0.72" stop-color="#0E0E0E"/>
<stop offset="0.85" stop-color="#030303"/>
<stop offset="1"/>
</linearGradient>
<linearGradient id="paint2_linear_935_5024" x1="153.661" y1="106.256" x2="-0.0583269" y2="167.584" gradientUnits="userSpaceOnUse">
<stop stop-color="white"/>
<stop offset="1" stop-color="white"/>
</linearGradient>
<linearGradient id="paint3_linear_935_5024" x1="128.056" y1="128.619" x2="136.698" y2="150.279" gradientUnits="userSpaceOnUse">
<stop/>
<stop offset="0.1" stop-color="#050505"/>
<stop offset="0.22" stop-color="#141414"/>
<stop offset="0.36" stop-color="#2E2E2E"/>
<stop offset="0.51" stop-color="#515151"/>
<stop offset="0.66" stop-color="#7F7F7F"/>
<stop offset="0.82" stop-color="#B6B6B6"/>
<stop offset="0.98" stop-color="#F7F7F7"/>
<stop offset="1" stop-color="white"/>
</linearGradient>
<linearGradient id="paint4_linear_935_5024" x1="87.7733" y1="144.002" x2="61.5651" y2="154.458" gradientUnits="userSpaceOnUse">
<stop stop-color="#808285"/>
<stop offset="0.24" stop-color="#87898C"/>
<stop offset="0.6" stop-color="#9C9EA1"/>
<stop offset="1" stop-color="#BCBEC0"/>
</linearGradient>
<linearGradient id="paint5_linear_935_5024" x1="87.1097" y1="144.268" x2="62.2283" y2="154.195" gradientUnits="userSpaceOnUse">
<stop stop-color="#BCBEC0"/>
<stop offset="0.4" stop-color="#9C9EA1"/>
<stop offset="0.76" stop-color="#87898C"/>
<stop offset="1" stop-color="#808285"/>
</linearGradient>
</defs>
</svg>
