<svg width="24" height="24" viewBox="0 0 24 24" fill="none" xmlns="http://www.w3.org/2000/svg">
<path opacity="0.2" d="M2.25 9H21.75L12 3L2.25 9Z"/>
<path d="M2.25 9.74986H4.5V15.7499H3C2.80109 15.7499 2.61032 15.8289 2.46967 15.9695C2.32902 16.1102 2.25 16.301 2.25 16.4999C2.25 16.6988 2.32902 16.8895 2.46967 17.0302C2.61032 17.1708 2.80109 17.2499 3 17.2499H21C21.1989 17.2499 21.3897 17.1708 21.5303 17.0302C21.671 16.8895 21.75 16.6988 21.75 16.4999C21.75 16.301 21.671 16.1102 21.5303 15.9695C21.3897 15.8289 21.1989 15.7499 21 15.7499H19.5V9.74986H21.75C21.913 9.74957 22.0714 9.6962 22.2014 9.59782C22.3313 9.49944 22.4257 9.36141 22.4702 9.20462C22.5147 9.04783 22.5069 8.88081 22.448 8.72884C22.3891 8.57687 22.2823 8.44822 22.1437 8.36236L12.3937 2.36236C12.2758 2.28831 12.1393 2.24902 12 2.24902C11.8607 2.24902 11.7242 2.28831 11.6063 2.36236L1.85625 8.36236C1.71771 8.44822 1.61092 8.57687 1.55202 8.72884C1.49312 8.88081 1.48533 9.04783 1.52983 9.20462C1.57432 9.36141 1.66868 9.49944 1.79862 9.59782C1.92856 9.6962 2.08702 9.74957 2.25 9.74986ZM6 9.74986H9V15.7499H6V9.74986ZM13.5 9.74986V15.7499H10.5V9.74986H13.5ZM18 15.7499H15V9.74986H18V15.7499ZM12 3.88111L19.0969 8.24986H4.90312L12 3.88111ZM23.25 19.4999C23.25 19.6988 23.171 19.8895 23.0303 20.0302C22.8897 20.1708 22.6989 20.2499 22.5 20.2499H1.5C1.30109 20.2499 1.11032 20.1708 0.96967 20.0302C0.829018 19.8895 0.75 19.6988 0.75 19.4999C0.75 19.301 0.829018 19.1102 0.96967 18.9695C1.11032 18.8289 1.30109 18.7499 1.5 18.7499H22.5C22.6989 18.7499 22.8897 18.8289 23.0303 18.9695C23.171 19.1102 23.25 19.301 23.25 19.4999Z"/>
</svg>
