<svg width="16" height="15" viewBox="0 0 16 15" fill="none" xmlns="http://www.w3.org/2000/svg">
<path d="M13.25 1.5H11.75V0.75C11.75 0.551088 11.671 0.360322 11.5303 0.21967C11.3897 0.0790176 11.1989 0 11 0C10.8011 0 10.6103 0.0790176 10.4697 0.21967C10.329 0.360322 10.25 0.551088 10.25 0.75V1.5H5.75V0.75C5.75 0.551088 5.67098 0.360322 5.53033 0.21967C5.38968 0.0790176 5.19891 0 5 0C4.80109 0 4.61032 0.0790176 4.46967 0.21967C4.32902 0.360322 4.25 0.551088 4.25 0.75V1.5H2.75C2.15326 1.5 1.58097 1.73705 1.15901 2.15901C0.737053 2.58097 0.5 3.15326 0.5 3.75V12.75C0.5 13.3467 0.737053 13.919 1.15901 14.341C1.58097 14.7629 2.15326 15 2.75 15H13.25C13.8467 15 14.419 14.7629 14.841 14.341C15.2629 13.919 15.5 13.3467 15.5 12.75V3.75C15.5 3.15326 15.2629 2.58097 14.841 2.15901C14.419 1.73705 13.8467 1.5 13.25 1.5ZM14 12.75C14 12.9489 13.921 13.1397 13.7803 13.2803C13.6397 13.421 13.4489 13.5 13.25 13.5H2.75C2.55109 13.5 2.36032 13.421 2.21967 13.2803C2.07902 13.1397 2 12.9489 2 12.75V7.5H14V12.75ZM14 6H2V3.75C2 3.55109 2.07902 3.36032 2.21967 3.21967C2.36032 3.07902 2.55109 3 2.75 3H4.25V3.75C4.25 3.94891 4.32902 4.13968 4.46967 4.28033C4.61032 4.42098 4.80109 4.5 5 4.5C5.19891 4.5 5.38968 4.42098 5.53033 4.28033C5.67098 4.13968 5.75 3.94891 5.75 3.75V3H10.25V3.75C10.25 3.94891 10.329 4.13968 10.4697 4.28033C10.6103 4.42098 10.8011 4.5 11 4.5C11.1989 4.5 11.3897 4.42098 11.5303 4.28033C11.671 4.13968 11.75 3.94891 11.75 3.75V3H13.25C13.4489 3 13.6397 3.07902 13.7803 3.21967C13.921 3.36032 14 3.55109 14 3.75V6Z" fill="#72BF65"/>
</svg>
