<svg width="18" height="18" viewBox="0 0 18 18" fill="none" xmlns="http://www.w3.org/2000/svg">
<path d="M2.58333 17.25C2.07917 17.25 1.64742 17.0706 1.28808 16.7119C0.929361 16.3526 0.75 15.9208 0.75 15.4167V2.58333C0.75 2.07917 0.929361 1.64742 1.28808 1.28808C1.64742 0.929361 2.07917 0.75 2.58333 0.75H15.4167C15.9208 0.75 16.3526 0.929361 16.7119 1.28808C17.0706 1.64742 17.25 2.07917 17.25 2.58333V15.4167C17.25 15.9208 17.0706 16.3526 16.7119 16.7119C16.3526 17.0706 15.9208 17.25 15.4167 17.25H2.58333ZM7.71667 12.4604C7.83889 12.4604 7.95347 12.4415 8.06042 12.4036C8.16736 12.3651 8.26667 12.3 8.35833 12.2083L13.5604 7.00625C13.7285 6.83819 13.8125 6.63194 13.8125 6.3875C13.8125 6.14306 13.7208 5.92917 13.5375 5.74583C13.3694 5.57778 13.1556 5.49375 12.8958 5.49375C12.6361 5.49375 12.4222 5.57778 12.2542 5.74583L7.71667 10.2833L5.72292 8.28958C5.55486 8.12153 5.34861 8.0375 5.10417 8.0375C4.85972 8.0375 4.64583 8.12917 4.4625 8.3125C4.29444 8.48056 4.21042 8.69444 4.21042 8.95417C4.21042 9.21389 4.29444 9.42778 4.4625 9.59583L7.075 12.2083C7.16667 12.3 7.26597 12.3651 7.37292 12.4036C7.47986 12.4415 7.59444 12.4604 7.71667 12.4604Z" fill="#72BF65"/>
</svg>
