<svg width="17" height="17" viewBox="0 0 17 17" fill="none" xmlns="http://www.w3.org/2000/svg">
<g clip-path="url(#copy-svg)">
<g clip-path="url(#copy-svg-2)">
<path d="M10.3437 1.66602H3.01034C2.277 1.66602 1.677 2.26602 1.677 2.99935V11.666C1.677 12.0327 1.977 12.3327 2.34367 12.3327C2.71034 12.3327 3.01034 12.0327 3.01034 11.666V3.66602C3.01034 3.29935 3.31034 2.99935 3.677 2.99935H10.3437C10.7103 2.99935 11.0103 2.69935 11.0103 2.33268C11.0103 1.96602 10.7103 1.66602 10.3437 1.66602ZM13.0103 4.33268H5.677C4.94367 4.33268 4.34367 4.93268 4.34367 5.66602V14.9993C4.34367 15.7327 4.94367 16.3327 5.677 16.3327H13.0103C13.7437 16.3327 14.3437 15.7327 14.3437 14.9993V5.66602C14.3437 4.93268 13.7437 4.33268 13.0103 4.33268ZM12.3437 14.9993H6.34367C5.977 14.9993 5.677 14.6993 5.677 14.3327V6.33268C5.677 5.96602 5.977 5.66602 6.34367 5.66602H12.3437C12.7103 5.66602 13.0103 5.96602 13.0103 6.33268V14.3327C13.0103 14.6993 12.7103 14.9993 12.3437 14.9993Z" fill="#72BF65" fill-opacity="0.4"/>
</g>
</g>
<defs>
<clipPath id="copy-svg">
<rect width="16" height="16" fill="white" transform="translate(0.34375 0.5625)"/>
</clipPath>
<clipPath id="copy-svg-2">
<rect width="16" height="16" fill="white" transform="translate(0.34375 1)"/>
</clipPath>
</defs>
</svg>
