<svg width="24" height="24" viewBox="0 0 24 24" fill="none" xmlns="http://www.w3.org/2000/svg">
<path d="M12 23C10.1333 23 8.41667 22.575 6.85 21.725C5.28333 20.875 4 19.7417 3 18.325V21H1V15H7V17H4.525C5.325 18.2 6.37933 19.1667 7.688 19.9C8.996 20.6333 10.4333 21 12 21C13.25 21 14.421 20.7627 15.513 20.288C16.6043 19.8127 17.5543 19.1707 18.363 18.362C19.171 17.554 19.8127 16.604 20.288 15.512C20.7627 14.4207 21 13.25 21 12H23C23 13.5167 22.7127 14.9417 22.138 16.275C21.5627 17.6083 20.775 18.775 19.775 19.775C18.775 20.775 17.6083 21.5623 16.275 22.137C14.9417 22.7123 13.5167 23 12 23ZM11.1 19V17.7C10.3167 17.5167 9.67933 17.1793 9.188 16.688C8.696 16.196 8.33333 15.55 8.1 14.75L9.75 14.1C9.95 14.7833 10.2627 15.2957 10.688 15.637C11.1127 15.979 11.6 16.15 12.15 16.15C12.7 16.15 13.1707 16.0207 13.562 15.762C13.954 15.504 14.15 15.1 14.15 14.55C14.15 14.0667 13.946 13.675 13.538 13.375C13.1293 13.075 12.4 12.7333 11.35 12.35C10.3667 12 9.646 11.5833 9.188 11.1C8.72933 10.6167 8.5 9.98333 8.5 9.2C8.5 8.51667 8.73767 7.89567 9.213 7.337C9.68767 6.779 10.3333 6.41667 11.15 6.25V5H12.9V6.25C13.5 6.3 14.046 6.54167 14.538 6.975C15.0293 7.40833 15.3667 7.91667 15.55 8.5L13.95 9.15C13.8167 8.76667 13.6 8.446 13.3 8.188C13 7.92933 12.5833 7.8 12.05 7.8C11.4667 7.8 11.021 7.925 10.713 8.175C10.4043 8.425 10.25 8.76667 10.25 9.2C10.25 9.63333 10.4417 9.975 10.825 10.225C11.2083 10.475 11.9 10.7667 12.9 11.1C14.1 11.5333 14.9 12.0417 15.3 12.625C15.7 13.2083 15.9 13.85 15.9 14.55C15.9 15.0333 15.8167 15.4583 15.65 15.825C15.4833 16.1917 15.2627 16.504 14.988 16.762C14.7127 17.0207 14.3917 17.229 14.025 17.387C13.6583 17.5457 13.2667 17.6667 12.85 17.75V19H11.1ZM1 12C1 10.4833 1.28767 9.05833 1.863 7.725C2.43767 6.39167 3.225 5.225 4.225 4.225C5.225 3.225 6.39167 2.43733 7.725 1.862C9.05833 1.28733 10.4833 1 12 1C13.8667 1 15.5833 1.425 17.15 2.275C18.7167 3.125 20 4.25833 21 5.675V3H23V9H17V7H19.475C18.675 5.8 17.6207 4.83333 16.312 4.1C15.004 3.36667 13.5667 3 12 3C10.75 3 9.57933 3.23733 8.488 3.712C7.396 4.18733 6.446 4.829 5.638 5.637C4.82933 6.44567 4.18733 7.39567 3.712 8.487C3.23733 9.579 3 10.75 3 12H1Z" fill="white" fill-opacity="0.4"/>
</svg>
