<svg width="16" height="17" viewBox="0 0 16 17" fill="none" xmlns="http://www.w3.org/2000/svg">
<path d="M16 8.5C16 12.9193 12.418 16.5 8 16.5C3.58203 16.5 0 12.9193 0 8.5C0 4.08332 3.58203 0.5 8 0.5C12.418 0.5 16 4.08332 16 8.5ZM8 10.1129C7.18048 10.1129 6.51613 10.7773 6.51613 11.5968C6.51613 12.4163 7.18048 13.0806 8 13.0806C8.81952 13.0806 9.48387 12.4163 9.48387 11.5968C9.48387 10.7773 8.81952 10.1129 8 10.1129ZM6.59119 4.77916L6.83048 9.16626C6.84168 9.37155 7.01142 9.53226 7.217 9.53226H8.783C8.98858 9.53226 9.15832 9.37155 9.16952 9.16626L9.40881 4.77916C9.4209 4.55742 9.24436 4.37097 9.02229 4.37097H6.97768C6.75561 4.37097 6.5791 4.55742 6.59119 4.77916Z" fill="#D65745"/>
</svg>
