<svg width="24" height="24" viewBox="0 0 24 24" fill="none" xmlns="http://www.w3.org/2000/svg">
<g clip-path="url(#clip0_405_3440)">
<path fill-rule="evenodd" clip-rule="evenodd" d="M2.93997 5.06043L18.94 21.0604L21.06 18.9404L18.614 16.4934L23 12.0004L17.445 6.31043C16.1787 4.99925 14.4817 4.18926 12.666 4.02942C10.8502 3.86958 9.03779 4.37063 7.56196 5.44043L5.05996 2.94043L2.93896 5.06043H2.93997ZM9.68696 7.56643C10.6306 7.07341 11.7069 6.89445 12.7593 7.05561C13.8117 7.21677 14.7851 7.70964 15.5379 8.46246C16.2908 9.21527 16.7836 10.1887 16.9448 11.2411C17.1059 12.2935 16.927 13.3698 16.434 14.3134L9.68696 7.56643Z" fill="#5E6673"/>
<path d="M1 12.0003L3.29 9.6543L13.488 19.8523C12.2438 20.1015 10.9569 20.0342 9.74548 19.6564C8.53407 19.2787 7.437 18.6026 6.555 17.6903L1 12.0003Z" fill="#5E6673"/>
</g>
<defs>
<clipPath id="clip0_405_3440">
<rect width="24" height="24" fill="white"/>
</clipPath>
</defs>
</svg>
