<svg width="25" height="25" viewBox="0 0 25 25" fill="none" xmlns="http://www.w3.org/2000/svg">
<path d="M12.9431 14.8682C13.6062 14.8682 14.242 14.6048 14.7109 14.1359C15.1797 13.6671 15.4431 13.0312 15.4431 12.3682C15.4431 11.7051 15.1797 11.0692 14.7109 10.6004C14.242 10.1316 13.6062 9.86816 12.9431 9.86816C12.2801 9.86816 11.6442 10.1316 11.1753 10.6004C10.7065 11.0692 10.4431 11.7051 10.4431 12.3682C10.4431 13.0312 10.7065 13.6671 11.1753 14.1359C11.6442 14.6048 12.2801 14.8682 12.9431 14.8682Z" fill="#5E6673"/>
<path fill-rule="evenodd" clip-rule="evenodd" d="M7.49812 6.67831L1.94312 12.3683L7.49812 18.0583C8.20426 18.789 9.05026 19.3701 9.98572 19.767C10.9212 20.1639 11.9269 20.3684 12.9431 20.3684C13.9593 20.3684 14.9651 20.1639 15.9005 19.767C16.836 19.3701 17.682 18.789 18.3881 18.0583L23.9431 12.3683L18.3881 6.67831C17.682 5.94758 16.836 5.36647 15.9005 4.96958C14.9651 4.5727 13.9593 4.36816 12.9431 4.36816C11.9269 4.36816 10.9212 4.5727 9.98572 4.96958C9.05026 5.36647 8.20426 5.94758 7.49812 6.67831ZM17.9431 12.3683C17.9431 13.6944 17.4163 14.9662 16.4786 15.9038C15.541 16.8415 14.2692 17.3683 12.9431 17.3683C11.617 17.3683 10.3453 16.8415 9.40758 15.9038C8.4699 14.9662 7.94312 13.6944 7.94312 12.3683C7.94312 11.0422 8.4699 9.77045 9.40758 8.83277C10.3453 7.89509 11.617 7.36831 12.9431 7.36831C14.2692 7.36831 15.541 7.89509 16.4786 8.83277C17.4163 9.77045 17.9431 11.0422 17.9431 12.3683Z" fill="#5E6673"/>
</svg>
