<svg width="16" height="17" viewBox="0 0 16 17" fill="none" xmlns="http://www.w3.org/2000/svg">
<g clip-path="url(#clip0_98_979)">
<path fill-rule="evenodd" clip-rule="evenodd" d="M3.48301 4.67786C3.48301 4.32808 3.76656 4.04453 4.11634 4.04453H4.4998C4.8864 4.04453 5.1998 3.73113 5.1998 3.34453C5.1998 2.95793 4.8864 2.64453 4.4998 2.64453H4.11634C2.99336 2.64453 2.08301 3.55488 2.08301 4.67786V12.446C2.08301 13.5689 2.99336 14.4793 4.11634 14.4793H11.8845C13.0074 14.4793 13.9178 13.5689 13.9178 12.446V12.062C13.9178 11.6754 13.6044 11.362 13.2178 11.362C12.8312 11.362 12.5178 11.6754 12.5178 12.062V12.446C12.5178 12.7957 12.2342 13.0793 11.8845 13.0793H4.11634C3.76656 13.0793 3.48301 12.7957 3.48301 12.446V4.67786ZM7.30022 3.34453C7.30022 2.95793 7.61362 2.64453 8.00022 2.64453H13.2176C13.6042 2.64453 13.9176 2.95793 13.9176 3.34453V8.56192C13.9176 8.94852 13.6042 9.26192 13.2176 9.26192C12.831 9.26192 12.5176 8.94852 12.5176 8.56192V5.03434L7.00433 10.5476C6.73096 10.821 6.28774 10.821 6.01438 10.5476C5.74101 10.2743 5.74101 9.83104 6.01438 9.55767L11.5275 4.04453H8.00022C7.61362 4.04453 7.30022 3.73113 7.30022 3.34453Z" fill="#6C86AD"/>
</g>
<defs>
<clipPath id="clip0_98_979">
<rect width="16" height="16" fill="white" transform="translate(0 0.5625)"/>
</clipPath>
</defs>
</svg>
