<svg width="97" height="75" viewBox="0 0 97 75" fill="none" xmlns="http://www.w3.org/2000/svg">
<path d="M30.2404 66.5734L6.48008 29.5404L13.2134 25.2203L26.1735 45.4202L33.4132 12.2601L39.8933 22.3601L30.2404 66.5734Z" fill="#72BF65"/>
<path d="M51.059 57.6804C48.7923 57.6804 46.7923 57.2138 45.059 56.2804C43.3523 55.3471 42.019 54.0671 41.059 52.4404C40.1257 50.8138 39.659 48.9471 39.659 46.8404C39.659 44.7338 40.1123 42.8671 41.019 41.2404C41.9523 39.6138 43.219 38.3471 44.819 37.4404C46.4457 36.5071 48.2723 36.0404 50.299 36.0404C52.3523 36.0404 54.1657 36.4938 55.739 37.4004C57.3123 38.3071 58.539 39.5871 59.419 41.2404C60.3257 42.8671 60.779 44.7738 60.779 46.9604C60.779 47.1204 60.7657 47.3071 60.739 47.5204C60.739 47.7338 60.7257 47.9338 60.699 48.1204H42.659V45.3604H58.699L57.139 46.3204C57.1657 44.9604 56.8857 43.7471 56.299 42.6804C55.7123 41.6138 54.899 40.7871 53.859 40.2004C52.8457 39.5871 51.659 39.2804 50.299 39.2804C48.9657 39.2804 47.779 39.5871 46.739 40.2004C45.699 40.7871 44.8857 41.6271 44.299 42.7204C43.7123 43.7871 43.419 45.0138 43.419 46.4004V47.0404C43.419 48.4538 43.739 49.7204 44.379 50.8404C45.0457 51.9338 45.9657 52.7871 47.139 53.4004C48.3123 54.0138 49.659 54.3204 51.179 54.3204C52.4323 54.3204 53.5657 54.1071 54.579 53.6804C55.619 53.2538 56.5257 52.6138 57.299 51.7604L59.419 54.2404C58.459 55.3604 57.259 56.2138 55.819 56.8004C54.4057 57.3871 52.819 57.6804 51.059 57.6804ZM66.1112 57.4404V36.2404H69.7912V42.0004L69.4312 40.5604C70.0179 39.0938 71.0045 37.9738 72.3912 37.2004C73.7779 36.4271 75.4845 36.0404 77.5112 36.0404V39.7604C77.3512 39.7338 77.1912 39.7204 77.0312 39.7204C76.8979 39.7204 76.7645 39.7204 76.6312 39.7204C74.5779 39.7204 72.9512 40.3338 71.7512 41.5604C70.5512 42.7871 69.9512 44.5604 69.9512 46.8804V57.4404H66.1112ZM90.3834 57.6804C88.25 57.6804 86.5967 57.1071 85.4234 55.9604C84.25 54.8138 83.6634 53.1738 83.6634 51.0404V31.6004H87.5034V50.8804C87.5034 52.0271 87.7834 52.9071 88.3434 53.5204C88.93 54.1338 89.7567 54.4404 90.8234 54.4404C92.0234 54.4404 93.0234 54.1071 93.8234 53.4404L95.0234 56.2004C94.4367 56.7071 93.73 57.0804 92.9034 57.3204C92.1034 57.5604 91.2634 57.6804 90.3834 57.6804ZM80.0634 39.4004V36.2404H93.5834V39.4004H80.0634Z" fill="white"/>
</svg>
