<svg width="14" height="15" viewBox="0 0 14 15" fill="none" xmlns="http://www.w3.org/2000/svg">
<path fill-rule="evenodd" clip-rule="evenodd" d="M7.6875 1.5C7.6875 1.12031 7.37968 0.8125 7 0.8125C6.62032 0.8125 6.3125 1.12031 6.3125 1.5V6.08333C6.3125 6.46302 6.62032 6.77083 7 6.77083C7.37968 6.77083 7.6875 6.46302 7.6875 6.08333V1.5ZM3.62502 4.74777C3.89993 4.48586 3.91047 4.05069 3.64857 3.77578C3.38666 3.50087 2.95149 3.49033 2.67658 3.75223C1.5296 4.84496 0.8125 6.37447 0.8125 8.06948C0.8125 11.4204 3.60112 14.1042 7 14.1042C10.3989 14.1042 13.1875 11.4204 13.1875 8.06948C13.1875 6.37447 12.4704 4.84496 11.3235 3.75223C11.0485 3.49033 10.6133 3.50087 10.3514 3.77578C10.0895 4.05069 10.1001 4.48586 10.375 4.74777C11.2654 5.59613 11.8125 6.77203 11.8125 8.06948C11.8125 10.6248 9.6763 12.7292 7 12.7292C4.32375 12.7292 2.1875 10.6248 2.1875 8.06948C2.1875 6.77203 2.73457 5.59613 3.62502 4.74777Z" fill="white"/>
</svg>
