<svg width="9" height="9" viewBox="0 0 9 9" fill="none" xmlns="http://www.w3.org/2000/svg">
<path d="M4.5 0C2.016 0 0 2.016 0 4.5C0 6.984 2.016 9 4.5 9C6.984 9 9 6.984 9 4.5C9 2.016 6.984 0 4.5 0ZM4.5 8.1C2.5155 8.1 0.9 6.4845 0.9 4.5C0.9 2.5155 2.5155 0.9 4.5 0.9C6.4845 0.9 8.1 2.5155 8.1 4.5C8.1 6.4845 6.4845 8.1 4.5 8.1ZM4.05 6.3H4.95V7.2H4.05V6.3ZM4.7745 1.818C3.8475 1.683 3.0285 2.2545 2.781 3.0735C2.7 3.3345 2.898 3.6 3.1725 3.6H3.2625C3.447 3.6 3.5955 3.4695 3.6585 3.2985C3.8025 2.898 4.23 2.6235 4.6935 2.7225C5.121 2.8125 5.436 3.231 5.4 3.6675C5.355 4.2705 4.671 4.401 4.2975 4.9635C4.2975 4.968 4.293 4.968 4.293 4.9725C4.2885 4.9815 4.284 4.986 4.2795 4.995C4.239 5.0625 4.1985 5.139 4.167 5.22C4.1625 5.2335 4.1535 5.2425 4.149 5.256C4.1445 5.265 4.1445 5.274 4.14 5.2875C4.086 5.4405 4.05 5.625 4.05 5.85H4.95C4.95 5.661 4.9995 5.5035 5.076 5.3685C5.085 5.355 5.0895 5.3415 5.0985 5.328C5.1345 5.265 5.1795 5.2065 5.2245 5.1525C5.229 5.148 5.2335 5.139 5.238 5.1345C5.283 5.0805 5.3325 5.031 5.3865 4.9815C5.8185 4.572 6.4035 4.239 6.282 3.3795C6.174 2.5965 5.5575 1.935 4.7745 1.818Z" fill="#6C86AD"/>
</svg>
