<svg width="10" height="10" viewBox="0 0 10 10" fill="none" xmlns="http://www.w3.org/2000/svg">
<path d="M1.25 7.5013C1.25 7.72232 1.3378 7.93428 1.49408 8.09056C1.65036 8.24684 1.86232 8.33464 2.08333 8.33464C2.30435 8.33464 2.51631 8.24684 2.67259 8.09056C2.82887 7.93428 2.91667 7.72232 2.91667 7.5013C2.91667 7.28029 2.82887 7.06833 2.67259 6.91205C2.51631 6.75577 2.30435 6.66797 2.08333 6.66797C1.86232 6.66797 1.65036 6.75577 1.49408 6.91205C1.3378 7.06833 1.25 7.28029 1.25 7.5013ZM7.08333 2.5013C7.08333 2.72232 7.17113 2.93428 7.32741 3.09056C7.48369 3.24684 7.69565 3.33464 7.91667 3.33464C8.13768 3.33464 8.34964 3.24684 8.50592 3.09056C8.6622 2.93428 8.75 2.72232 8.75 2.5013C8.75 2.28029 8.6622 2.06833 8.50592 1.91205C8.34964 1.75577 8.13768 1.66797 7.91667 1.66797C7.69565 1.66797 7.48369 1.75577 7.32741 1.91205C7.17113 2.06833 7.08333 2.28029 7.08333 2.5013Z" stroke="#72BF65" stroke-width="0.75" stroke-linecap="round" stroke-linejoin="round"/>
<path d="M7.91683 3.33333V5.41667C7.91683 5.9692 7.69734 6.4991 7.30664 6.88981C6.91593 7.28051 6.38603 7.5 5.8335 7.5H4.5835M4.5835 7.5L5.8335 6.25M4.5835 7.5L5.8335 8.75M2.0835 6.66667V4.58333C2.0835 4.0308 2.30299 3.50089 2.69369 3.11019C3.08439 2.71949 3.6143 2.5 4.16683 2.5H5.41683M5.41683 2.5L4.16683 1.25M5.41683 2.5L4.16683 3.75" stroke="#72BF65" stroke-width="0.75" stroke-linecap="round" stroke-linejoin="round"/>
</svg>
