<svg width="22" height="19" viewBox="0 0 22 19" fill="none" xmlns="http://www.w3.org/2000/svg">
<path d="M12.26 0.999584C7.17003 0.859584 3.00003 4.94958 3.00003 9.99958H1.21003C0.760031 9.99958 0.540031 10.5396 0.860031 10.8496L3.65003 13.6496C3.85003 13.8496 4.16003 13.8496 4.36003 13.6496L7.15003 10.8496C7.21913 10.7791 7.26582 10.6897 7.28421 10.5927C7.30261 10.4957 7.29187 10.3955 7.25338 10.3046C7.21488 10.2137 7.15033 10.1362 7.06788 10.0819C6.98542 10.0277 6.88874 9.999 6.79003 9.99958H5.00003C5.00003 6.09958 8.18003 2.94958 12.1 2.99958C15.82 3.04958 18.95 6.17958 19 9.89958C19.05 13.8096 15.9 16.9996 12 16.9996C10.39 16.9996 8.90003 16.4496 7.72003 15.5196C7.52849 15.3687 7.28818 15.2935 7.0448 15.3082C6.80141 15.323 6.57194 15.4267 6.40003 15.5996C5.98003 16.0196 6.01003 16.7296 6.48003 17.0896C8.05116 18.3321 9.997 19.0053 12 18.9996C17.05 18.9996 21.14 14.8296 21 9.73958C20.87 5.04958 16.95 1.12958 12.26 0.999584ZM11.75 5.99958C11.34 5.99958 11 6.33958 11 6.74958V10.4296C11 10.7796 11.19 11.1096 11.49 11.2896L14.61 13.1396C14.97 13.3496 15.43 13.2296 15.64 12.8796C15.85 12.5196 15.73 12.0596 15.38 11.8496L12.5 10.1396V6.73958C12.5 6.33958 12.16 5.99958 11.75 5.99958Z" fill="black"/>
</svg>
