<svg width="16" height="17" viewBox="0 0 16 17" fill="none" xmlns="http://www.w3.org/2000/svg">
<path d="M13.6498 3.34989C12.8116 2.50416 11.7942 1.8575 10.6726 1.45768C9.551 1.05786 8.35393 0.915079 7.16978 1.03989C3.49978 1.40989 0.479777 4.38989 0.0697772 8.05989C-0.480223 12.9099 3.26978 16.9999 7.99978 16.9999C9.50988 16.9999 10.989 16.5714 12.2653 15.7642C13.5415 14.957 14.5626 13.8043 15.2098 12.4399C15.5298 11.7699 15.0498 10.9999 14.3098 10.9999C13.9398 10.9999 13.5898 11.1999 13.4298 11.5299C12.8492 12.7789 11.8561 13.7899 10.6177 14.3927C9.37925 14.9955 7.97098 15.1534 6.62978 14.8399C4.40978 14.3499 2.61978 12.5399 2.14978 10.3199C1.95221 9.44215 1.9545 8.53122 2.15647 7.65449C2.35845 6.77775 2.75494 5.95764 3.31663 5.25481C3.87831 4.55198 4.59082 3.98442 5.40145 3.59411C6.21207 3.20379 7.10008 3.00071 7.99978 2.99989C9.65978 2.99989 11.1398 3.68989 12.2198 4.77989L10.7098 6.28989C10.0798 6.91989 10.5198 7.99989 11.4098 7.99989H14.9998C15.5498 7.99989 15.9998 7.54989 15.9998 6.99989V3.40989C15.9998 2.51989 14.9198 2.06989 14.2898 2.69989L13.6498 3.34989Z" fill="black"/>
</svg>
