<svg width="18" height="19" viewBox="0 0 18 19" fill="none" xmlns="http://www.w3.org/2000/svg">
<path d="M8.27148 16C9.92893 15.9996 11.5386 15.4054 12.8442 14.312L16.2889 18.001C16.6535 18.3915 17.2446 18.3915 17.6092 18.001C17.9739 17.6105 17.9739 16.9775 17.6092 16.587L14.1645 12.898C15.1861 11.4997 15.7413 9.7754 15.7417 8C15.7417 3.589 12.3904 0 8.27148 0C4.15259 0 0.80127 3.589 0.80127 8C0.80127 12.411 4.15259 16 8.27148 16ZM8.27148 2C11.3613 2 13.8741 4.691 13.8741 8C13.8741 11.309 11.3613 14 8.27148 14C5.18161 14 2.66882 11.309 2.66882 8C2.66882 4.691 5.18161 2 8.27148 2Z" fill="#6C86AD"/>
</svg>
