<svg width="24" height="24" viewBox="0 0 24 24" fill="none" xmlns="http://www.w3.org/2000/svg">
<path d="M21.0469 12.7969L17.1094 16.7344C17.0046 16.8388 16.8803 16.9215 16.7436 16.9778C16.6069 17.0341 16.4604 17.0629 16.3125 17.0625C16.0143 17.0612 15.7283 16.9435 15.5156 16.7344C15.4107 16.6299 15.3275 16.5057 15.2707 16.3689C15.214 16.2322 15.1847 16.0856 15.1847 15.9375C15.1847 15.7894 15.214 15.6428 15.2707 15.5061C15.3275 15.3693 15.4107 15.2451 15.5156 15.1406L17.5312 13.125H9.75C9.45163 13.125 9.16548 13.0065 8.9545 12.7955C8.74353 12.5845 8.625 12.2984 8.625 12C8.625 11.7016 8.74353 11.4155 8.9545 11.2045C9.16548 10.9935 9.45163 10.875 9.75 10.875H17.5312L15.5156 8.85938C15.3043 8.64803 15.1855 8.36139 15.1855 8.0625C15.1855 7.76361 15.3043 7.47697 15.5156 7.26562C15.727 7.05428 16.0136 6.93555 16.3125 6.93555C16.6114 6.93555 16.898 7.05428 17.1094 7.26562L21.0469 11.2031C21.1518 11.3076 21.235 11.4318 21.2918 11.5686C21.3485 11.7053 21.3778 11.8519 21.3778 12C21.3778 12.1481 21.3485 12.2947 21.2918 12.4314C21.235 12.5682 21.1518 12.6924 21.0469 12.7969ZM9.75 19.125H4.875V4.875H9.75C10.0484 4.875 10.3345 4.75647 10.5455 4.5455C10.7565 4.33452 10.875 4.04837 10.875 3.75C10.875 3.45163 10.7565 3.16548 10.5455 2.9545C10.3345 2.74353 10.0484 2.625 9.75 2.625H4.5C4.00348 2.62746 3.528 2.8258 3.1769 3.1769C2.8258 3.528 2.62746 4.00348 2.625 4.5V19.5C2.62746 19.9965 2.8258 20.472 3.1769 20.8231C3.528 21.1742 4.00348 21.3725 4.5 21.375H9.75C10.0484 21.375 10.3345 21.2565 10.5455 21.0455C10.7565 20.8345 10.875 20.5484 10.875 20.25C10.875 19.9516 10.7565 19.6655 10.5455 19.4545C10.3345 19.2435 10.0484 19.125 9.75 19.125Z" fill="white"/>
</svg>
