<svg width="58" height="58" viewBox="0 0 58 58" fill="none" xmlns="http://www.w3.org/2000/svg">
<path fill-rule="evenodd" clip-rule="evenodd" d="M29.0001 57.3327C44.648 57.3327 57.3334 44.6473 57.3334 28.9993C57.3334 13.3513 44.648 0.666016 29.0001 0.666016C13.352 0.666016 0.666748 13.3513 0.666748 28.9993C0.666748 44.6473 13.352 57.3327 29.0001 57.3327ZM42.4746 22.355C43.4994 21.1725 43.3716 19.3831 42.189 18.3582C41.0066 17.3334 39.2171 17.4612 38.1923 18.6437L25.6001 33.1731L19.8079 26.4899C18.783 25.3072 16.9936 25.1794 15.8111 26.2043C14.6286 27.2291 14.5008 29.0186 15.5256 30.2012L23.4589 39.3549C23.9973 39.976 24.7784 40.3327 25.6001 40.3327C26.4217 40.3327 27.2029 39.976 27.7412 39.3549L42.4746 22.355Z" fill="#16C784"/>
</svg>
