<svg width="12" height="11" viewBox="0 0 12 11" fill="none" xmlns="http://www.w3.org/2000/svg">
<path d="M11.2045 5.4221C11.2045 2.53359 8.82571 0.154812 5.9372 0.154812C3.02745 0.154812 0.669913 2.53359 0.669913 5.4221C0.669913 8.33185 3.02745 10.6894 5.9372 10.6894C8.82571 10.6894 11.2045 8.33185 11.2045 5.4221ZM5.32127 8.22566C5.19383 8.35309 4.9602 8.35309 4.83277 8.22566L2.62391 6.01679C2.49647 5.88936 2.49647 5.65573 2.62391 5.5283L3.1124 5.06104C3.23984 4.91236 3.45223 4.91236 3.57966 5.06104L5.08764 6.54777L8.2735 3.36191C8.40093 3.21324 8.61332 3.21324 8.74076 3.36191L9.22925 3.82917C9.35669 3.9566 9.35669 4.19023 9.22925 4.31767L5.32127 8.22566Z" fill="#00A186"/>
</svg>
