<svg width="14" height="14" viewBox="0 0 14 14" fill="none" xmlns="http://www.w3.org/2000/svg">
<g clip-path="url(#clip0_301_814)">
<path d="M13.7842 2.72211C13.5147 2.25895 13.0188 1.94434 12.4444 1.94434H7V2.72211H13.7842ZM0 9.72211H14V10.4999H0V9.72211ZM7 6.611H14V7.38878H7V6.611ZM7 5.05545H14V5.83322H7V5.05545ZM0 8.16656H14V8.94434H0V8.16656ZM1.55556 12.0554H12.4444C13.0188 12.0554 13.5147 11.7408 13.7842 11.2777H0.215833C0.485333 11.7408 0.981167 12.0554 1.55556 12.0554ZM7 3.49989H14V4.27767H7V3.49989Z" fill="#B22334"/>
<path d="M0.0264444 10.7645C0.0330556 10.8007 0.0404444 10.8368 0.0493889 10.8722C0.0595 10.9115 0.0719444 10.9492 0.0851667 10.9873C0.119778 11.088 0.161778 11.1853 0.214667 11.2763L0.215833 11.2782H13.7842L13.7849 11.2767C13.8371 11.185 13.8804 11.0885 13.9141 10.9885C13.9397 10.9155 13.9594 10.8406 13.9732 10.7645C13.9891 10.6789 14 10.591 14 10.5004H0C0 10.591 0.0108889 10.6785 0.0264444 10.7645ZM0 8.94488H14V9.72266H0V8.94488ZM0 7.38932V8.1671H14V7.38932H7H0ZM7 5.83377H14V6.61154H7V5.83377ZM7 4.27821H14V5.05599H7V4.27821ZM0.0497778 3.12866C0.0595 3.08899 0.0731111 3.05127 0.0855556 3.01316C0.0720506 3.05115 0.0601146 3.08968 0.0497778 3.12866ZM7 3.50043H14C14 3.40982 13.9891 3.32193 13.9732 3.23599C13.9595 3.15981 13.9396 3.08489 13.9137 3.01199C13.88 2.91158 13.8366 2.81468 13.7842 2.72266H7V3.50043Z" fill="#EEEEEE"/>
<path d="M7 1.94434H1.55556C1.143 1.94434 0.747335 2.10822 0.455612 2.39995C0.163888 2.69167 0 3.08733 0 3.49989L0 7.38878H7V1.94434Z" fill="#3C3B6E"/>
<path d="M0.77832 3.00499L1.01865 3.1796L0.926876 3.46154L1.16682 3.28732L1.40715 3.46154L1.31538 3.1796L1.55571 3.00499H1.2586L1.16682 2.72266L1.07543 3.00499H0.77832ZM1.5561 3.78277L1.79643 3.95738L1.70465 4.23932L1.9446 4.0651L2.18493 4.23932L2.09315 3.95738L2.33349 3.78277H2.03638L1.9446 3.50043L1.85321 3.78277H1.5561ZM3.11165 3.78277L3.35199 3.95738L3.26021 4.23932L3.50015 4.0651L3.74049 4.23932L3.64871 3.95738L3.88904 3.78277H3.59193L3.50015 3.50043L3.40876 3.78277H3.11165ZM4.66721 3.78277L4.90754 3.95738L4.81576 4.23932L5.05571 4.0651L5.29604 4.23932L5.20426 3.95738L5.4446 3.78277H5.14749L5.05571 3.50043L4.96432 3.78277H4.66721ZM1.5561 5.33832L1.79643 5.51293L1.70465 5.79488L1.9446 5.62066L2.18493 5.79488L2.09315 5.51293L2.33349 5.33832H2.03638L1.9446 5.05599L1.85321 5.33832H1.5561ZM3.11165 5.33832L3.35199 5.51293L3.26021 5.79488L3.50015 5.62066L3.74049 5.79488L3.64871 5.51293L3.88904 5.33832H3.59193L3.50015 5.05599L3.40876 5.33832H3.11165ZM4.66721 5.33832L4.90754 5.51293L4.81576 5.79488L5.05571 5.62066L5.29604 5.79488L5.20426 5.51293L5.4446 5.33832H5.14749L5.05571 5.05599L4.96432 5.33832H4.66721ZM2.33388 3.00499L2.57421 3.1796L2.48243 3.46154L2.72238 3.28732L2.96271 3.46154L2.87093 3.1796L3.11126 3.00499H2.81415L2.72238 2.72266L2.63099 3.00499H2.33388ZM3.88943 3.00499L4.12976 3.1796L4.03799 3.46154L4.27793 3.28732L4.51826 3.46154L4.42649 3.1796L4.66682 3.00499H4.36971L4.27793 2.72266L4.18654 3.00499H3.88943ZM5.44499 3.00499L5.68532 3.1796L5.59354 3.46154L5.83349 3.28732L6.07382 3.46154L5.98204 3.1796L6.22238 3.00499H5.92526L5.83349 2.72266L5.7421 3.00499H5.44499ZM0.77832 4.56054L1.01865 4.73516L0.926876 5.0171L1.16682 4.84288L1.40715 5.0171L1.31538 4.73516L1.55571 4.56054H1.2586L1.16682 4.27821L1.07543 4.56054H0.77832ZM2.48243 5.0171L2.72238 4.84288L2.96271 5.0171L2.87093 4.73516L3.11126 4.56054H2.81415L2.72238 4.27821L2.63099 4.56054H2.33388L2.57421 4.73516L2.48243 5.0171ZM3.88943 4.56054L4.12976 4.73516L4.03799 5.0171L4.27793 4.84288L4.51826 5.0171L4.42649 4.73516L4.66682 4.56054H4.36971L4.27793 4.27821L4.18654 4.56054H3.88943ZM5.44499 4.56054L5.68532 4.73516L5.59354 5.0171L5.83349 4.84288L6.07382 5.0171L5.98204 4.73516L6.22238 4.56054H5.92526L5.83349 4.27821L5.7421 4.56054H5.44499ZM0.77832 6.1161L1.01865 6.29071L0.926876 6.57266L1.16682 6.39843L1.40715 6.57266L1.31538 6.29071L1.55571 6.1161H1.2586L1.16682 5.83377L1.07543 6.1161H0.77832ZM2.48243 6.57266L2.72238 6.39843L2.96271 6.57266L2.87093 6.29071L3.11126 6.1161H2.81415L2.72238 5.83377L2.63099 6.1161H2.33388L2.57421 6.29071L2.48243 6.57266ZM3.88943 6.1161L4.12976 6.29071L4.03799 6.57266L4.27793 6.39843L4.51826 6.57266L4.42649 6.29071L4.66682 6.1161H4.36971L4.27793 5.83377L4.18654 6.1161H3.88943ZM5.44499 6.1161L5.68532 6.29071L5.59354 6.57266L5.83349 6.39843L6.07382 6.57266L5.98204 6.29071L6.22238 6.1161H5.92526L5.83349 5.83377L5.7421 6.1161H5.44499Z" fill="white"/>
</g>
<defs>
<clipPath id="clip0_301_814">
<rect width="14" height="14" fill="white"/>
</clipPath>
</defs>
</svg>
